<svg width="16" height="13" viewBox="0 0 16 13" fill="none" xmlns="http://www.w3.org/2000/svg">
    <path d="M15.2156 5.29098C15.4543 5.53476 15.5865 5.86333 15.5831 6.20451C15.5797 6.54568 15.4411 6.87157 15.1976 7.11058L10.2949 11.9196C10.051 12.1588 9.72212 12.2912 9.38055 12.2878C9.03899 12.2845 8.71276 12.1455 8.47363 11.9016C8.2345 11.6577 8.10206 11.3288 8.10544 10.9872C8.10882 10.6457 8.24775 10.3194 8.49166 10.0803L11.1753 7.44845L1.27477 7.35045C0.93332 7.34707 0.607194 7.20819 0.368141 6.96436C0.129087 6.72052 -0.00331417 6.39171 6.56691e-05 6.05026C0.00344551 5.70881 0.142329 5.38268 0.386163 5.14363C0.629996 4.90457 0.958807 4.77217 1.30026 4.77555L11.2008 4.87355L8.56976 2.18995C8.45135 2.06918 8.3579 1.92626 8.29472 1.76937C8.23155 1.61248 8.19989 1.44468 8.20157 1.27556C8.20324 1.10643 8.23821 0.939296 8.30448 0.783686C8.37075 0.628075 8.46702 0.487041 8.58779 0.368635C8.70856 0.25023 8.85147 0.156773 9.00836 0.0935983C9.16526 0.0304241 9.33305 -0.00123036 9.50218 0.000443702C9.6713 0.00211776 9.83844 0.0370876 9.99405 0.103355C10.1497 0.169623 10.2907 0.265891 10.4091 0.386663L15.2156 5.29098Z" fill="#204A22" fill-opacity="0.5"/>
</svg>
