<svg
   width="89mm"
   height="86mm"
   viewBox="0 0 89 86">
   <defs
      id="defs1">
      <pattern
         id="EMFhbasepattern"
         patternUnits="userSpaceOnUse"
         width="6"
         height="6"
         x="0"
         y="0" />
      <pattern
         id="EMFhbasepattern-4"
         patternUnits="userSpaceOnUse"
         width="6"
         height="6"
         x="0"
         y="0" />
      <pattern
         id="EMFhbasepattern-1"
         patternUnits="userSpaceOnUse"
         width="6"
         height="6"
         x="0"
         y="0" />
   </defs>
   <g
      id="layer1">
      <path
         style="fill:#feda00;fill-opacity:1;fill-rule:evenodd;stroke:none;stroke-width:0.264586"
         d="m 43.477763,62.17324 2.232452,2.895962 c 0.730804,0.629123 1.832012,0.4294 3.824202,1.288201 1.511661,0.659078 2.172387,0.948683 3.974366,0.72898 3.92431,-0.479323 7.598342,-2.416618 10.661712,-4.743373 2.813088,-2.137018 3.964354,-2.686254 5.34587,-5.29262 -2.58284,0 -3.72409,0.309574 -6.076671,0.629123 -5.395928,0.74896 -6.23686,0.169759 -11.022111,2.386674 -1.952144,0.908734 -3.72409,1.997212 -4.985477,2.107053 1.671838,-2.496515 7.488227,-3.624941 7.488227,-9.057357 0,-2.546448 -0.300328,-4.633532 -1.181299,-6.291226 -2.452693,0.649093 0.38042,0.29958 -3.473814,2.826059 -1.431573,0.948683 -2.402642,1.887371 -3.513861,3.185557 -1.181297,1.398052 -1.892079,2.156987 -2.272497,4.423824 -0.230253,1.298186 -0.120132,1.687648 -0.200219,2.975849 -0.240265,3.565024 0.02002,-0.529257 -0.80088,1.937294 z"
         id="path1" />
      <path
         style="fill:#feda00;fill-opacity:1;fill-rule:evenodd;stroke:none;stroke-width:0.264586"
         d="m 55.711197,48.003017 c 0,1.138412 1.741918,5.212723 2.282511,5.991637 2.032231,2.93591 11.562699,1.957273 13.234538,0.838831 5.065562,-3.365301 5.946537,-4.973061 9.300219,-10.055963 2.432675,-3.68486 -1.071181,-1.577806 -5.34587,-0.179754 -1.972167,0.649093 -3.834212,1.447976 -5.596151,2.296792 -4.224641,2.007207 -6.427057,5.502328 -9.540474,6.221323 0.991086,-1.45797 5.526061,-4.014403 5.526061,-8.258474 0,-1.098472 -1.161272,-3.495131 -1.571722,-4.333952 -0.840922,-1.747566 -1.011117,-2.646315 -3.163475,-3.145618 -0.770853,3.335346 -5.125637,6.810498 -5.125637,10.625178 z"
         id="path2" />
      <path
         style="fill:#feda00;fill-opacity:1;fill-rule:evenodd;stroke:none;stroke-width:0.264586"
         d="m 70.307239,42.101253 c 0.240264,-2.895961 3.65401,-4.813286 2.212431,-9.676496 -0.310344,-1.038554 -4.655112,-5.662102 -6.156765,-6.061549 -1.061166,0.768929 -2.092304,3.894568 -2.282511,5.202748 -0.680752,4.783323 -0.240265,6.221314 2.002204,8.847649 0.590641,0.699027 1.281409,1.368089 1.94213,1.997213 1.381515,1.338134 3.393734,1.877386 5.385922,1.248262 4.554997,-1.438001 10.091084,-1.867401 12.443664,-10.045978 0.951044,-3.285423 1.411552,-1.917335 1.411552,-6.460985 -1.952145,0.159774 -3.213533,1.967248 -4.895377,2.985833 -4.004398,2.416628 -5.696257,2.915931 -8.519361,7.239889 -0.921007,1.408037 -2.242459,3.774731 -3.543889,4.723414 z"
         id="path3" />
      <path
         style="fill:#feda00;fill-opacity:1;fill-rule:evenodd;stroke:none;stroke-width:0.264586"
         d="M 75.803273,29.848345 C 77.385011,23.08778 74.922309,14.55968 66.753334,14.55968 c 0,3.345331 -0.540593,8.637951 1.671838,11.324205 2.462703,1.75754 4.725192,3.185556 7.378101,3.96446 z m 0.810895,0.44938 c 1.862045,0.8588 6.997677,-2.476546 8.759616,-3.854619 4.735208,-3.734793 3.47382,-9.616588 3.47382,-15.029033 -1.922109,0.509289 -2.943232,2.516483 -4.384821,3.894566 -2.853131,2.726193 -4.054445,3.694845 -5.776342,7.21992 -1.852029,3.81468 -0.520572,6.640739 -2.072273,7.769166 z"
         id="path4" />
      <path
         style="fill:#feda00;fill-opacity:1;fill-rule:evenodd;stroke:none;stroke-width:0.264586"
         d="m 26.919572,14.55968 c 5.12563,0 4.334762,0.798893 4.334762,-4.7234055 0,-3.1955414 -7.758523,-8.2584762 -12.623867,-8.2584762 h -5.9165 C 12.814077,6.1014855 22.094272,14.55968 26.919572,14.55968 Z"
         id="path5" />
      <path
         style="fill:#feda00;fill-opacity:1;fill-rule:evenodd;stroke:none;stroke-width:0.264586"
         d="m 47.782492,20.890844 c -0.320352,-1.647698 -1.081189,-3.135623 -2.722993,-3.575008 -0.240263,2.915931 -4.354784,6.92035 -5.646202,9.716445 -0.931022,2.017181 -2.062264,9.626562 -1.872057,11.713656 0.05006,0.649093 13.675023,-0.679057 10.241252,-17.855093 z"
         id="path6" />
      <path
         style="fill:#feda00;fill-opacity:1;fill-rule:evenodd;stroke:none;stroke-width:0.264586"
         d="m 22.484701,68.774031 c 7.658413,0.259641 15.517045,-3.844634 19.301203,-10.655133 1.291418,-2.33674 2.883166,-3.924521 2.883166,-7.359724 l -11.772932,6.361118 c -5.045542,3.275429 -6.737401,8.368326 -10.411437,11.653739 z"
         id="path7" />
      <path
         style="fill:#feda00;fill-opacity:1;fill-rule:evenodd;stroke:none;stroke-width:0.264586"
         d="m 33.226502,14.949142 c 0,3.674875 3.293617,7.17998 3.553904,10.235716 1.30143,-0.349513 5.596146,-5.242686 6.487125,-7.709247 2.242465,-6.211329 -7.017709,-13.9405442 -8.459293,-14.330001 0,6.1813748 -1.581736,7.76916 -1.581736,11.803532 z"
         id="path8" />
      <path
         style="fill:#feda00;fill-opacity:1;fill-rule:evenodd;stroke:none;stroke-width:0.264586"
         d="m 33.156425,53.695074 c 1.882066,1.747565 12.233439,-4.973061 14.035418,-8.67789 0.670735,-1.398053 2.212431,-8.817695 2.212431,-11.174405 -1.471618,0.389452 -6.737404,5.222707 -8.629481,6.740596 -1.862045,1.497909 -9.370292,11.483969 -7.618368,13.111699 z"
         id="path9-5" />
      <path
         style="fill:#feda00;fill-opacity:1;fill-rule:evenodd;stroke:none;stroke-width:0.264586"
         d="m 73.070269,8.2684618 c 0,5.4723652 -0.700763,5.7919152 2.062268,8.5580562 0.98108,0.988621 1.611774,2.067114 3.063369,2.456576 1.311436,-0.87878 1.391521,-1.517888 2.462702,-2.6563 2.252474,-2.366694 1.872061,-1.707616 1.872061,-6.391077 0,-3.0457505 -0.490546,-4.6135622 -1.902098,-6.3611238 L 79.166971,2.176962 C 77.755419,0.4793307 77.995684,0.0499303 75.823294,0 75.693151,1.587784 73.070269,4.9730599 73.070269,8.2684618 Z"
         id="path10-2" />
      <path
         style="fill:#feda00;fill-opacity:1;fill-rule:evenodd;stroke:none;stroke-width:0.264586"
         d="m 25.337835,51.937524 c -1.131243,-1.737571 -1.581738,-2.596372 -3.944334,-3.145608 0,2.875982 -0.730802,2.895961 -1.681846,5.013009 -2.783058,6.141426 -2.90319,9.217132 2.472715,13.870643 0.410452,-0.369482 0.850936,-0.718995 1.221343,-1.138411 4.645103,-5.761959 5.886465,-8.548079 1.932122,-14.599633 z"
         id="path11-7" />
      <path
         style="fill:#feda00;fill-opacity:1;fill-rule:evenodd;stroke:none;stroke-width:0.264586"
         d="m 31.254334,54.304228 c 1.501649,-2.246869 3.724093,-8.268469 2.392628,-11.424061 -1.201319,-2.836044 -5.946532,-5.222718 -8.699556,-6.680678 0,7.859037 -3.483827,10.455409 2.592848,15.118906 1.711881,1.318155 1.671837,1.90733 3.71408,2.985833 z"
         id="path12-6" />
      <path
         style="fill:#feda00;fill-opacity:1;fill-rule:evenodd;stroke:none;stroke-width:0.264586"
         d="m 28.551366,36.529023 c 2.472715,1.597775 5.375906,2.816074 8.22904,2.816074 0,-2.35671 0.04004,-7.05016 -1.231353,-8.997449 -2.162375,-3.305383 -8.869744,-4.463763 -12.573814,-4.773338 0.230253,2.796105 3.163476,9.396896 5.576127,10.954713 z"
         id="path13-1" />
      <path
         style="fill:#feda00;fill-opacity:1;fill-rule:evenodd;stroke:none;stroke-width:0.264586"
         d="M 35.589096,25.57431 C 34.728151,21.849512 32.725952,18.424293 29.672598,16.926384 27.430133,15.827912 19.941907,15.73804 16.267871,15.73804 c 0.290319,1.268232 3.633992,5.092897 4.885367,6.141426 0.750825,0.629123 1.541694,1.118442 2.262485,1.687647 2.392629,1.877387 2.242464,0.649093 5.466004,1.208314 2.602861,0.44937 3.513861,0.798883 6.707369,0.798883 z"
         id="path14-4" />
      <path
         style="fill:#94cd14;fill-opacity:1;fill-rule:evenodd;stroke:none;stroke-width:0.264586"
         d="m 83.191389,56.051784 c 3.744112,2.396658 4.995494,5.132835 4.995494,8.20855 0,9.566645 -19.111005,17.465631 -43.687998,17.465631 -24.576999,0 -44.13848874,-7.030191 -44.13848874,-16.596845 0,-2.945895 1.53168264,-6.431031 4.94543244,-8.657921 -1.3414738,1.667679 -2.1223311,3.245475 -2.1223311,4.883189 0,7.968879 18.4302464,16.337205 41.2453094,16.337205 22.825078,0 41.39547,-8.368326 41.39547,-16.337205 0,-1.837437 -0.981071,-3.585003 -2.632888,-5.302604 z"
         id="path15-2" />
      <path
         style="fill:#0b9424;fill-opacity:1;fill-rule:evenodd;stroke:none;stroke-width:0.264586"
         d="m 82.500632,55.372737 c 4.20462,2.865997 6.497136,6.441006 6.497136,10.255686 C 88.997768,76.882715 69.075878,86 44.498885,86 19.921886,86 0,76.882715 0,65.628423 0,62.153271 1.9121001,58.867858 5.6261805,56.131671 4.0344322,58.268688 2.963255,60.465623 2.963255,62.752431 c 0,9.566654 18.530357,18.863683 41.465552,18.863683 22.945205,0 41.605708,-9.297029 41.605708,-18.863683 0,-2.566408 -1.341473,-5.003015 -3.533883,-7.379694 z"
         id="path16-3" />
   </g>
</svg>