<svg width="76mm" height="89mm" viewBox="0 0 76 89">
  <defs id="defs1">
    <pattern id="EMFhbasepattern" patternUnits="userSpaceOnUse" width="6" height="6" x="0" y="0" />
    <pattern id="EMFhbasepattern-4" patternUnits="userSpaceOnUse" width="6" height="6" x="0" y="0" />
  </defs>
  <g id="layer1">
    <path style="fill:#3fa529;fill-opacity:1;fill-rule:evenodd;stroke:none;stroke-width:0.263352" d="M 70.346181,38.001541 C 70.396021,41.208879 69.58817,55.021307 68.62069,57.205875 68.41124,52.787087 67.812807,48.139914 67.044817,43.840297 L 64.461561,31.408123 c -0.239376,-0.25818 -0.229397,0.407126 -0.229397,-0.685163 V 30.494576 L 59.973289,19.720682 c -0.448825,-0.933404 -0.817862,-1.449753 -1.306581,-2.343443 -0.708158,-1.31074 -3.470939,-6.057209 -4.947075,-6.454403 1.047258,1.966111 2.35385,6.245876 3.052019,8.569462 2.403722,8.023324 3.869891,16.503417 4.877255,24.72533 l 0.528624,5.391906 c -0.758021,-0.506421 -0.728095,-0.754662 -1.31656,-1.419968 -0.488729,-0.556073 -0.96747,-0.933404 -1.486115,-1.479548 -0.55854,-0.566002 -0.758021,-1.052565 -1.406327,-1.558986 -0.718126,-0.556073 -0.987418,-0.734805 -1.506063,-1.419968 -0.668253,0.566001 -0.239375,0.585858 -0.937554,1.072422 -0.997396,0.70502 -0.658275,-0.228384 -1.117079,0.714948 2.184295,1.46962 5.725043,5.719595 7.41064,7.854521 1.276665,1.618557 0.728094,1.946245 0.807883,4.438635 0.04984,1.678147 0.239375,1.886675 0.229407,4.766334 V 72.82553 c 0.01,1.946245 -0.219429,3.356285 -0.219429,5.004647 -0.588465,-0.38727 -1.256718,-0.89369 -1.775363,-1.419978 L 59.2053,74.861151 c -0.598443,0.466697 -1.156983,1.489477 -1.555935,2.055479 0.638328,0.496492 0.937544,0.89368 1.685596,1.459681 0.678222,0.526288 1.047259,0.973128 1.635724,1.558986 0.588465,0.585868 1.017343,1.012852 1.605798,1.588782 0.698179,0.695091 0.877713,0.963189 1.496094,1.698004 l 3.650462,4.329412 c 0.20945,0.287965 0.478751,0.714948 0.688201,0.913547 1.027322,1.02278 1.436253,0.357474 2.224189,-0.168804 0,-3.078258 -1.276666,0.278037 -0.08972,-4.865628 1.765394,-7.705564 4.687752,-24.000453 4.887233,-32.003911 0.01994,-1.161798 0.239376,-1.40011 0.239376,-2.720784 0,-1.161788 -0.03987,-1.97603 0.119683,-3.058391 C 76.370487,41.824532 75.602498,32.430893 75.183588,28.012114 74.944223,25.519715 73.986721,19.949067 73.328436,17.565909 72.500609,14.517442 69.807648,5.9777703 67.663248,4.5578016 l 1.406327,7.4672484 c 0.369036,2.581761 0.738073,5.332332 0.877703,8.22192 0.04984,1.012841 0.199481,0.963189 0.239375,2.04555 0.01994,0.734805 -0.05981,1.549057 0,2.273934 0.249344,3.058391 0.438857,10.714303 0.159577,13.435087 z" id="path1-8" />
    <path style="fill:#f9b30c;fill-opacity:1;fill-rule:evenodd;stroke:none;stroke-width:0.263352" d="m 46.727903,77.532273 c 0.588465,-2.333514 2.403713,-4.537939 4.827382,-4.984779 0.588465,1.439824 1.645703,2.085263 2.5633,3.247061 -0.937545,1.350459 -4.77751,3.316571 -7.390682,1.737718 z m 10.03378,-3.247061 c -1.615776,-0.377331 -3.161743,-2.343444 -3.680388,-4.021591 -0.917598,-2.959087 0.07975,-3.852777 0.748052,-5.977764 1.097131,0.31775 1.675618,0.853966 2.42366,1.688075 0.47875,0.536207 0.987427,1.489477 1.276665,2.393096 0.867735,2.700917 -0.07975,3.902429 -0.767989,5.918184 z M 39.097835,73.282299 c 0.309196,-1.797299 1.984813,-3.415866 3.221585,-4.081172 2.732855,-1.46961 3.441013,-0.546134 5.994334,-0.158875 -0.638328,3.157696 -5.246292,6.702651 -9.215919,4.240047 z m -8.38808,-2.740641 c 0.648308,-2.710846 3.939703,-5.501129 6.423214,-4.885486 l 2.643098,1.02278 c -0.508676,1.678147 -1.855152,3.108044 -3.291404,3.793196 -1.66565,0.784458 -4.199024,0.943343 -5.774908,0.06947 z M 20.99514,69.717487 c 0.388983,-2.085274 1.845178,-3.554894 3.271452,-4.369137 2.523406,-1.449763 3.34127,-0.357474 5.924519,-0.05963 -1.156977,3.912358 -4.607959,5.401835 -9.195971,4.428707 z m -9.335607,0.248241 c -0.06982,-0.178732 -0.08977,-0.178732 -0.109713,-0.506421 l 0.359062,-1.370316 c 0.209453,-0.387269 1.954892,-1.896603 3.411088,-3.713768 1.286637,0.208527 2.244135,0.744743 4.099287,0.95327 -0.618383,2.93923 -3.989574,5.37205 -7.759724,4.637235 z m -8.7670909,-4.53794 c 0.6682535,-1.698004 2.2740575,-2.93923 4.2987669,-3.425794 2.692963,-0.645449 4.099289,0.367403 5.834754,1.231297 -0.468774,1.171727 -2.58325,2.869731 -4.2389235,3.3265 -2.533381,0.714948 -4.2090019,-0.486564 -5.8945974,-1.132003 z m 46.4685799,1.310745 c -2.274061,-0.119162 -4.099287,-1.489487 -4.867286,-2.710856 -1.296613,-2.055478 -1.356454,-3.147757 -1.087153,-5.818889 4.318716,0.595787 6.542904,3.713759 5.954439,8.529745 z M 13.704191,58.725137 c 4.27882,-1.807227 8.577587,-0.337617 9.784433,3.117972 -1.735465,0.973128 -4.119236,1.459692 -6.153919,0.566001 -1.516039,-0.665295 -3.171713,-2.10513 -3.630514,-3.683973 z m 27.657727,5.461425 c -2.5633,0.04969 -3.859912,-0.923475 -5.136578,-2.174639 -1.31656,-1.28096 -2.024707,-3.157696 -1.775363,-5.580577 4.49825,0.307822 6.941867,3.147757 6.911941,7.755216 z m -9.25581,-1.290888 c -4.32869,0.605725 -8.168656,-2.581756 -7.939256,-6.434543 6.373348,-0.476635 8.687305,4.647173 7.939256,6.434543 z M 57.649365,76.91663 c 0.398952,-0.566002 0.957492,-1.588782 1.555935,-2.055479 0.618381,-2.631418 1.914993,-4.984789 0,-8.638977 -1.266697,-2.422881 -4.528176,-5.183379 -5.944471,-4.776253 -0.887682,0.595787 -0.947523,1.112146 -1.595829,1.588772 -0.119693,-5.123798 -9.425369,-9.582301 -10.293103,-6.365034 -0.987418,-0.268108 -3.820018,-3.683974 -8.916702,-2.502319 -0.349087,0.724877 -0.448827,1.15186 -0.448827,2.273935 -1.36643,-0.903619 -2.573277,-2.095202 -5.086708,-2.452677 -1.107107,-0.158875 -2.902417,-0.05953 -3.67041,0.109233 -1.406325,0.317751 -1.765387,0.456769 -1.765387,2.115059 -2.832599,-0.655377 -5.465718,-2.025693 -9.794408,0.714948 -1.49609,0.943333 -1.067211,1.201512 -0.718123,2.700918 C 7.4505316,59.330862 6.3135028,59.191844 3.7601747,60.860053 2.3538489,61.7736 0.04986979,63.938311 0,65.993789 c 0.96747122,1.02278 2.2740574,1.946256 3.6903568,2.482462 1.2367683,0.466707 3.8499398,1.241236 5.4557438,0.476635 -0.079789,0.933404 -0.2293999,1.241226 -0.2293999,2.502319 1.2866383,0.863904 2.9423123,1.320673 4.7675423,1.122074 1.755413,-0.198599 3.411087,-0.774529 4.60796,-1.578843 1.196872,0.804314 2.732859,1.449753 4.578038,1.588771 0.967471,0.07941 2.184292,-0.02982 2.802676,-0.148946 1.206847,-0.238313 1.526013,-0.536206 2.443614,-0.754662 0.498697,1.856879 6.483064,2.204425 8.228502,1.370315 -0.02991,1.231298 -0.728105,2.005826 2.732855,2.959097 2.124453,0.585858 3.421066,0.476636 5.495636,0 -0.678222,1.410039 -1.166941,3.108044 0.578496,3.743554 3.05202,1.102208 6.333445,1.132003 9.056332,-0.754672 1.675618,-1.141931 1.705544,-1.737718 2.244136,-1.896603 0.239375,-0.06947 0.518645,0.09929 1.196877,-0.18866 z" id="path2-8" />
    <path style="fill:#f9b30c;fill-opacity:1;fill-rule:evenodd;stroke:none;stroke-width:0.263352" d="m 42.2496,45.746828 c 0.807893,-2.333514 2.97224,-4.220189 5.984365,-4.696824 0.837809,0.605725 1.226793,1.112146 1.845184,1.717861 0.638327,0.625582 1.316559,0.853966 1.944909,1.439834 -1.027312,1.002913 -2.004761,2.184568 -4.099288,2.601623 -1.914993,0.377331 -4.438399,0 -5.67517,-1.062494 z m -8.587559,-2.790293 c 0.668253,-1.698004 2.413691,-3.44566 4.14916,-4.190394 2.722887,-1.161798 3.371193,-0.387269 4.607954,0.466697 0.678232,0.466707 0.578497,0.44685 1.276666,0.734815 -0.219428,0.287965 -0.129661,0.158875 -0.359058,0.426983 -0.767999,0.844038 -2.802675,3.157686 -3.480907,3.376152 -2.124443,0.685153 -4.558092,0.148946 -6.193815,-0.814253 z M 13.783983,41.189022 c 0.658279,-1.906532 4.957047,-5.759309 8.038994,-3.743554 0.508671,0.327689 0.867733,0.536216 1.476143,0.804314 l 1.356456,0.665306 c -2.722886,4.845761 -9.265789,4.240046 -10.871593,2.273934 z m 12.058491,4.388993 c 0.02993,-5.004647 3.201633,-8.410584 8.358159,-8.162332 0.239375,1.479548 -1.775359,2.055478 -2.972233,5.054288 l -0.329138,1.817166 c -0.01,-0.02981 -0.01995,0.08935 -0.0399,0.139018 -1.166949,0.943333 -3.231554,1.320673 -5.016888,1.15186 z m 28.335952,-3.296704 c -1.845173,-0.287965 -3.700325,-2.264016 -4.418451,-3.743564 -1.416296,-2.899516 -0.638328,-4.379065 0.01,-7.060115 5.435805,1.251154 6.493032,8.440369 4.408483,10.803679 z m -8.427972,-4.001734 c -1.974835,-0.44684 -3.989574,-2.373238 -4.717678,-4.031519 -1.186889,-2.68106 -0.478741,-4.587592 0.309195,-6.940963 2.054633,0.595787 3.879869,2.303719 4.63788,4.071233 1.286644,3.018677 0.548571,4.249974 -0.229397,6.901249 z m -25.613072,-6.64307 c 2.563301,-1.976041 8.168654,-1.568914 10.672114,3.405937 l -2.872495,1.410039 c -2.882468,0.83411 -7.101444,-2.005826 -7.799619,-4.815976 z m 17.783533,3.932225 c -2.433638,0.01988 -4.797467,-1.638434 -5.645251,-2.849874 -1.1869,-1.698005 -1.875099,-3.932225 -1.476143,-6.553704 4.787491,0.37734 7.83952,4.101028 7.121394,9.403578 z m 16.486918,9.949702 c 0.458804,-0.943332 0.119683,-0.0099 1.117079,-0.714948 0.698179,-0.486564 0.269301,-0.506421 0.937554,-1.072422 0.179524,-0.844038 0.55854,-1.429896 0.817862,-2.412952 1.206846,-4.706754 -0.877713,-9.155327 -4.937096,-11.49877 -3.81005,-2.194497 -3.849944,-0.536216 -4.56807,-0.0099 -0.588465,-2.204425 -5.844726,-5.918193 -7.610111,-5.084084 -0.748042,0.357474 -1.326538,1.926388 -1.535988,2.81015 -1.286634,-0.337617 -2.134422,-2.740641 -6.223739,-3.584679 -1.306584,-0.268108 -3.121841,-0.675224 -3.730251,0.506421 -0.359061,0.70502 -0.558542,3.326499 -0.558542,4.448574 -2.782728,-0.645439 -5.136577,-1.300807 -8.398055,0.05963 -4.538142,1.896603 -1.615778,3.247062 -0.977446,5.630229 -3.311347,0.06947 -8.9665712,5.679871 -7.590167,7.765144 0.748046,1.15186 3.780123,2.422881 5.356005,2.651265 3.111869,0.44685 4.996943,-0.367402 6.8122,-1.320663 0,3.96201 -0.319166,4.647173 4.099288,4.319484 1.077187,-0.07941 2.383771,-0.456769 3.281428,-0.83411 1.276661,-0.536206 1.70554,-1.012841 2.673018,-1.65828 1.476137,0.774529 3.929723,1.370316 5.944462,0.903609 0.398952,0.754671 0.428878,0.724886 1.406326,1.330601 0.578487,0.357484 1.166952,0.585869 1.885078,0.853977 1.1071,0.417044 3.161733,0.923475 4.677774,0.754662 1.496094,-0.168804 3.032072,-0.685163 4.099288,-1.380244 2.134421,-1.380254 2.044654,-1.827094 3.022103,-2.462605 z" id="path3-2" />
    <path style="fill:#008836;fill-opacity:1;fill-rule:evenodd;stroke:none;stroke-width:0.263352" d="m 64.232164,30.494576 v 0.228384 c 0.229397,0.248251 0.229397,-0.377331 0.229397,0.685163 l 2.583256,12.432174 c 0.76799,4.299617 1.366423,8.94679 1.575873,13.365578 0.96748,-2.184568 1.775363,-15.996996 1.725491,-19.204334 -0.169556,-0.347546 -0.578487,-4.716682 -0.69817,-5.6203 C 68.441166,23.235852 65.458957,11.290241 60.302432,3.4555881 59.883522,2.8101481 59.41475,2.204427 58.975893,1.5887763 58.537047,0.97312568 58.008423,0.42698416 57.370095,0 c 0.239376,1.0128455 0.847778,2.1547777 1.236762,3.3265003 2.313955,6.9906147 3.371193,11.4590487 4.617932,18.8468577 0.299227,1.827094 0.997396,6.573561 1.007375,8.321218 z" id="path4-4" />
    <path style="fill:#fccc12;fill-opacity:1;fill-rule:evenodd;stroke:none;stroke-width:0.263352" d="m 45.750454,38.279577 c 0.777968,-2.651275 1.516041,-3.882572 0.229397,-6.901249 -0.758011,-1.767514 -2.583247,-3.475446 -4.63788,-4.071233 -0.787936,2.353371 -1.496084,4.259903 -0.309195,6.940963 0.728104,1.658281 2.742843,3.584679 4.717678,4.031519 z" id="path5-5" />
    <path style="fill:#fccc12;fill-opacity:1;fill-rule:evenodd;stroke:none;stroke-width:0.263352" d="m 54.178426,42.281311 c 2.084559,-2.36331 1.027322,-9.552525 -4.408473,-10.803679 -0.648306,2.68105 -1.426274,4.160599 -0.01,7.060115 0.718116,1.479548 2.573278,3.455599 4.418451,3.743564 z" id="path6-5" />
    <path style="fill:#fccc12;fill-opacity:1;fill-rule:evenodd;stroke:none;stroke-width:0.263352" d="m 37.920915,35.568732 c 0.718126,-5.30255 -2.333903,-9.026238 -7.121394,-9.403578 -0.398956,2.621479 0.289243,4.855699 1.476143,6.553704 0.847784,1.21144 3.211613,2.869731 5.645251,2.849874 z" id="path7-1" />
    <path style="fill:#fccc12;fill-opacity:1;fill-rule:evenodd;stroke:none;stroke-width:0.263352" d="m 20.137382,31.636507 c 0.698175,2.81015 4.917151,5.650086 7.799619,4.815976 l 2.872495,-1.410039 c -2.50346,-4.974851 -8.108813,-5.381978 -10.672114,-3.405937 z" id="path8-7" />
    <path style="fill:#fccc12;fill-opacity:1;fill-rule:evenodd;stroke:none;stroke-width:0.263352" d="m 13.783983,41.189022 c 1.605804,1.966112 8.148707,2.571827 10.871593,-2.273934 L 23.29912,38.249782 c -0.60841,-0.268098 -0.967472,-0.476625 -1.476143,-0.804314 -3.081947,-2.015755 -7.380715,1.837022 -8.038994,3.743554 z" id="path9" />
    <path style="fill:#fccc12;fill-opacity:1;fill-rule:evenodd;stroke:none;stroke-width:0.263352" d="m 25.842474,45.578015 c 1.785335,0.168813 3.84994,-0.208527 5.016889,-1.15186 0.01995,-0.04969 0.02993,-0.168813 0.0399,-0.139018 l 0.329138,-1.817166 c 1.196874,-2.99881 3.211612,-3.57474 2.972237,-5.054288 -5.15653,-0.248252 -8.328241,3.157685 -8.358163,8.162332 z" id="path10" />
    <path style="fill:#fccc12;fill-opacity:1;fill-rule:evenodd;stroke:none;stroke-width:0.263352" d="m 33.662041,42.956535 c 1.635723,0.963199 4.069372,1.499406 6.193815,0.814253 0.678232,-0.218466 2.712908,-2.532114 3.480907,-3.376152 0.229397,-0.268108 0.13963,-0.139018 0.359058,-0.426983 -0.698169,-0.287965 -0.598434,-0.268108 -1.276666,-0.734815 -1.236761,-0.853966 -1.885067,-1.628495 -4.607954,-0.466697 -1.735469,0.744734 -3.480907,2.49239 -4.14916,4.190394 z" id="path11" />
    <path style="fill:#fccc12;fill-opacity:1;fill-rule:evenodd;stroke:none;stroke-width:0.263352" d="m 42.2496,45.746828 c 1.236771,1.062494 3.760177,1.439825 5.67517,1.062494 2.094527,-0.417055 3.071976,-1.59871 4.099288,-2.601623 -0.62835,-0.585868 -1.306582,-0.814252 -1.944909,-1.439834 -0.618391,-0.605715 -1.007375,-1.112136 -1.845184,-1.717861 -3.012125,0.476635 -5.176472,2.36331 -5.984365,4.696824 z" id="path12" />
    <path style="fill:#fccc12;fill-opacity:1;fill-rule:evenodd;stroke:none;stroke-width:0.263352" d="m 56.761683,74.285212 c 0.688201,-2.015755 1.635724,-3.217267 0.767989,-5.918184 -0.289238,-0.903619 -0.797915,-1.856889 -1.276665,-2.393096 -0.748042,-0.834109 -1.326529,-1.370325 -2.42366,-1.688075 -0.668254,2.124987 -1.66565,3.018677 -0.748052,5.977764 0.518645,1.678147 2.064612,3.64426 3.680388,4.021591 z" id="path13" />
    <path style="fill:#fccc12;fill-opacity:1;fill-rule:evenodd;stroke:none;stroke-width:0.263352" d="m 32.106108,62.895674 c 0.748049,-1.78737 -1.565908,-6.911178 -7.939256,-6.434543 -0.2294,3.852787 3.610566,7.040268 7.939256,6.434543 z" id="path14" />
    <path style="fill:#fccc12;fill-opacity:1;fill-rule:evenodd;stroke:none;stroke-width:0.263352" d="m 49.361022,66.738533 c 0.588465,-4.815986 -1.635723,-7.933958 -5.954439,-8.529745 -0.269301,2.671132 -0.20946,3.763411 1.087153,5.818889 0.767999,1.221369 2.593225,2.591694 4.867286,2.710856 z" id="path15" />
    <path style="fill:#fccc12;fill-opacity:1;fill-rule:evenodd;stroke:none;stroke-width:0.263352" d="m 39.097835,73.282299 c 3.969627,2.462604 8.577591,-1.082351 9.215919,-4.240047 -2.553321,-0.387259 -3.261479,-1.310735 -5.994334,0.158875 -1.236772,0.665306 -2.912389,2.283873 -3.221585,4.081172 z" id="path16" />
    <path style="fill:#fccc12;fill-opacity:1;fill-rule:evenodd;stroke:none;stroke-width:0.263352" d="m 2.8924421,65.427788 c 1.6855955,0.645439 3.3612164,1.846951 5.8945974,1.132003 1.6556735,-0.456769 3.7701495,-2.154773 4.2389235,-3.3265 -1.735465,-0.863894 -3.141791,-1.876746 -5.834754,-1.231297 -2.0247094,0.486564 -3.6305134,1.72779 -4.2987669,3.425794 z" id="path17" />
    <path style="fill:#fccc12;fill-opacity:1;fill-rule:evenodd;stroke:none;stroke-width:0.263352" d="m 41.361918,64.186562 c 0.02991,-4.607459 -2.413691,-7.447394 -6.911941,-7.755216 -0.249344,2.422881 0.458803,4.299617 1.775363,5.580577 1.276666,1.251164 2.573278,2.224281 5.136578,2.174639 z" id="path18" />
    <path style="fill:#fccc12;fill-opacity:1;fill-rule:evenodd;stroke:none;stroke-width:0.263352" d="m 13.704191,58.725137 c 0.458801,1.578843 2.114475,3.018678 3.630514,3.683973 2.034683,0.893691 4.418454,0.407127 6.153919,-0.566001 -1.206846,-3.455589 -5.505613,-4.925199 -9.784433,-3.117972 z" id="path19" />
    <path style="fill:#fccc12;fill-opacity:1;fill-rule:evenodd;stroke:none;stroke-width:0.263352" d="m 30.709755,70.541658 c 1.575884,0.873833 4.109258,0.714948 5.774908,-0.06947 1.436252,-0.685153 2.782728,-2.115049 3.291404,-3.793196 l -2.643098,-1.02278 c -2.483511,-0.615644 -5.774906,2.17464 -6.423214,4.885485 z" id="path20" />
    <path style="fill:#fccc12;fill-opacity:1;fill-rule:evenodd;stroke:none;stroke-width:0.263352" d="m 20.99514,69.717487 c 4.588012,0.973117 8.038994,-0.51636 9.195971,-4.428717 -2.583249,-0.297894 -3.401113,-1.390183 -5.924519,0.05963 -1.426274,0.814253 -2.882469,2.283873 -3.271452,4.369136 z" id="path21" />
    <path style="fill:#fccc12;fill-opacity:1;fill-rule:evenodd;stroke:none;stroke-width:0.263352" d="m 11.659533,69.965728 c 3.77015,0.734815 7.141341,-1.698005 7.759724,-4.637235 -1.855152,-0.208527 -2.81265,-0.744743 -4.099287,-0.95327 -1.456196,1.817165 -3.201635,3.326499 -3.411088,3.713768 l -0.359062,1.370316 c 0.01995,0.327689 0.03989,0.327689 0.109713,0.506421 z" id="path22" />
    <path style="fill:#fccc12;fill-opacity:1;fill-rule:evenodd;stroke:none;stroke-width:0.263352" d="m 46.727903,77.532273 c 2.613172,1.578853 6.453137,-0.387259 7.390682,-1.737718 -0.917597,-1.161798 -1.974835,-1.807237 -2.5633,-3.247061 -2.423669,0.44684 -4.238917,2.651265 -4.827382,4.984779 z" id="path23" />
  </g>
</svg>
