<?xml version="1.0" encoding="UTF-8" standalone="no"?>
<!-- Created with Inkscape (http://www.inkscape.org/) -->

<svg
   width="76mm"
   height="107mm"
   viewBox="0 0 76 107"
   version="1.1"
   id="svg1"
   inkscape:version="1.4.2 (f4327f4, 2025-05-13)"
   sodipodi:docname="icon1.svg"
   xmlns:inkscape="http://www.inkscape.org/namespaces/inkscape"
   xmlns:sodipodi="http://sodipodi.sourceforge.net/DTD/sodipodi-0.dtd"
   xmlns="http://www.w3.org/2000/svg"
   xmlns:svg="http://www.w3.org/2000/svg">
  <sodipodi:namedview
     id="namedview1"
     pagecolor="#ffffff"
     bordercolor="#000000"
     borderopacity="0.25"
     inkscape:showpageshadow="2"
     inkscape:pageopacity="0.0"
     inkscape:pagecheckerboard="0"
     inkscape:deskcolor="#d1d1d1"
     inkscape:document-units="mm"
     inkscape:zoom="1.0721378"
     inkscape:cx="244.83794"
     inkscape:cy="353.03299"
     inkscape:window-width="1920"
     inkscape:window-height="1111"
     inkscape:window-x="-9"
     inkscape:window-y="-9"
     inkscape:window-maximized="1"
     inkscape:current-layer="layer1" />
  <defs
     id="defs1">
    <pattern
       id="EMFhbasepattern"
       patternUnits="userSpaceOnUse"
       width="6"
       height="6"
       x="0"
       y="0" />
  </defs>
  <g
     inkscape:label="Layer 1"
     inkscape:groupmode="layer"
     id="layer1">
    <path
       style="fill:#3fa528;fill-opacity:1;fill-rule:evenodd;stroke:none;stroke-width:0.263909"
       d="M 29.622053,92.470733 C 28.943833,89.578849 22.58058,80.254984 19.558533,77.941477 17.843052,76.635134 17.793181,76.046786 14.721261,74.401401 9.8839893,71.828607 5.4257258,71.09068 0,72.357131 c 0.21942428,0.189462 0.11969045,0.139609 0.49868869,0.339052 3.70026701,1.994407 5.33596041,2.183869 9.63465031,6.013133 7.859319,7.020317 13.235173,13.681642 18.730707,22.895814 0.708135,1.17669 2.732805,4.26803 2.992122,5.39487 h 0.558535 c 0.299212,-1.2864 3.261409,-6.11287 4.089234,-7.638588 3.680319,-6.7411 9.634649,-15.37688 14.591602,-21.459828 l 5.625192,-6.382106 c 1.695544,-2.223762 3.859852,-4.108482 6.064043,-5.95331 l 9.804201,-8.067384 C 73.496589,56.880524 75.660896,55.703819 76,54.756479 c -0.887669,0.428797 -3.231493,0.339042 -4.22887,0.518543 -1.705513,0.289189 -2.573231,0.508573 -4.099213,0.93737 -2.313913,0.648181 -4.727559,1.755082 -6.861941,2.911835 -11.280312,6.162723 -20.545933,19.824424 -25.59265,31.401962 l -0.847769,1.665326 c 0,-1.745101 -0.289245,-2.173898 -0.289245,-3.899068 0,-1.396079 0,-2.802139 0.01,-4.208199 0.02986,-6.830845 -0.857736,-17.391238 -0.837792,-24.301859 0,-1.386118 0.02986,-2.812119 0.01,-4.198237 -0.01998,-1.615463 -0.30919,-2.104094 -0.299212,-3.899059 L 32.684041,43.587787 C 32.514432,37.804006 32.414698,32.648462 32.414698,26.82479 H 32.13543 c 0,1.605498 -0.299212,2.114072 -0.289234,3.899067 0.01,1.396086 0,2.802145 0.01,4.198231 l -0.279267,8.376511 c 0.01,4.656947 -0.568513,11.727117 -0.558535,16.48379 l -0.26929,12.305495 c -0.01,1.765052 -0.30919,2.323488 -0.299212,4.168315 l -0.269301,12.305495 c 0,2.881923 0.408924,3.201024 -0.558524,3.909039 z"
       id="path1" />
    <path
       style="fill:#fccd13;fill-opacity:1;fill-rule:evenodd;stroke:none;stroke-width:0.263909"
       d="m 7.8294041,53.918826 c 0,3.360574 2.4435619,5.275206 5.6750649,6.890679 C 17.095014,62.61445 26.669824,64.96785 28.22572,60.600092 28.933866,58.615655 26.889238,56.451727 25.632553,55.39469 19.029929,49.850236 7.8294041,50.298975 7.8294041,53.918826 Z"
       id="path2" />
    <path
       style="fill:#fccd13;fill-opacity:1;fill-rule:evenodd;stroke:none;stroke-width:0.263909"
       d="m 35.207353,46.379965 c 0,2.19385 1.934914,3.071386 3.909712,3.071386 4.458264,0 10.223094,-3.500183 12.776377,-6.511745 6.233595,-7.349394 -0.907613,-10.420782 -8.916536,-5.564398 -2.772699,1.685278 -7.769553,5.564398 -7.769553,9.004757 z"
       id="path3" />
    <path
       style="fill:#fccd13;fill-opacity:1;fill-rule:evenodd;stroke:none;stroke-width:0.263909"
       d="m 35.207353,31.292264 c 0,8.546034 16.207348,-1.246505 16.207348,-11.457875 0,-2.044268 -2.004724,-3.310717 -4.90708,-2.383318 -4.996856,1.6055 -11.300268,8.655732 -11.300268,13.841193 z"
       id="path4" />
    <path
       style="fill:#fccd13;fill-opacity:1;fill-rule:evenodd;stroke:none;stroke-width:0.263909"
       d="m 12.856175,20.392824 c 0,5.773811 8.557475,14.250046 13.125461,14.250046 3.440939,0 3.62047,-3.300747 2.70288,-6.05303 -0.738051,-2.223763 -2.543306,-4.836439 -4.019416,-6.312301 -2.004732,-1.994408 -6.383209,-6.003169 -9.624681,-5.025908 -1.366397,0.408854 -2.184244,1.525722 -2.184244,3.141193 z"
       id="path5" />
    <path
       style="fill:#fccd13;fill-opacity:1;fill-rule:evenodd;stroke:none;stroke-width:0.263909"
       d="m 36.045145,59.223954 c 0,6.780982 11.878744,3.011552 14.721262,1.595522 1.855118,-0.9274 5.675065,-3.460291 5.675065,-5.783779 0,-1.176705 0.09978,-2.343429 -2.054586,-3.260858 -5.794755,-2.453126 -18.341741,3.091327 -18.341741,7.449115 z"
       id="path6" />
    <path
       style="fill:#fccd13;fill-opacity:1;fill-rule:evenodd;stroke:none;stroke-width:0.263909"
       d="m 9.5049909,37.714259 c 0,5.025914 7.8992131,10.500563 13.6440971,11.507737 7.460363,1.296363 7.141206,-6.372136 -2.204201,-11.776983 -2.224148,-1.286393 -6.782155,-3.161136 -9.57481,-2.054239 -0.91758,0.368964 -1.8650861,1.196643 -1.8650861,2.323485 z"
       id="path7" />
    <path
       style="fill:#fccd13;fill-opacity:1;fill-rule:evenodd;stroke:none;stroke-width:0.263909"
       d="m 27.946465,10.061789 c 0,2.901864 0.04984,4.796552 0.927559,7.439142 2.343828,7.03029 7.450385,5.185462 7.450385,-7.9975763 C 36.324411,6.2624422 34.918119,0 32.135433,0 29.272969,0 27.946465,6.6812679 27.946465,10.061789 Z"
       id="path8" />
  </g>
</svg>
