<svg width="46" height="40" viewBox="0 0 46 40" fill="none" xmlns="http://www.w3.org/2000/svg">
    <path d="M12.1021 27.417C15.6142 31.6909 19.8711 34.92 24.7572 37.0119C26.5393 37.7752 28.2153 38.1733 29.8883 38.2405C29.9879 38.2405 30.0843 38.2454 30.1807 38.2454C31.7325 38.2454 33.0246 37.754 34.0194 36.7825C34.8558 35.9651 35.684 35.1181 36.4779 34.299L36.5824 34.1893C37.177 33.5766 37.5282 32.8804 37.623 32.1137C37.7651 31.0145 37.3927 30.0038 36.5155 29.1191C35.6072 28.2001 34.6925 27.286 33.7761 26.3768C33.6584 26.2589 33.5457 26.1426 33.4298 26.0246C33.0785 25.6642 32.7143 25.2956 32.301 24.9516C30.9713 23.8442 29.2365 23.8573 27.8888 24.9811C27.6878 25.1482 27.5081 25.3284 27.353 25.484L27.2991 25.5381C26.6963 26.1425 26.0952 26.7503 25.4924 27.3531C25.4418 27.3286 25.396 27.3024 25.3454 27.2778C24.9223 27.0599 24.5221 26.8535 24.1529 26.6192C22.1535 25.3366 20.2978 23.5952 18.4782 21.3016C17.7921 20.4383 17.2661 19.6077 16.8773 18.7723L17.3037 18.348C17.877 17.7812 18.4667 17.1947 19.0385 16.6033C20.507 15.0814 20.507 13.1189 19.0385 11.6086C18.0257 10.5651 16.9802 9.5248 15.974 8.51734L15.0951 7.64093C14.6394 7.1839 14.1117 6.86937 13.5351 6.70225C12.6693 6.44997 11.369 6.41229 10.0981 7.64584C9.79758 7.93907 9.50353 8.23724 9.20788 8.53864C8.76519 8.99077 8.34701 9.42 7.90269 9.82134C6.6351 10.9746 5.99963 12.4211 6.05843 14.0102C6.05843 15.3813 6.27568 16.6231 6.75269 18.0319C7.85694 21.3033 9.60482 24.3652 12.0975 27.4007L12.1021 27.417ZM9.31697 11.389C9.80704 10.9451 10.2628 10.4749 10.7087 10.0211C10.9897 9.73117 11.2739 9.44613 11.5614 9.16598C11.9551 8.77937 12.2884 8.67125 12.5775 8.67125C12.7147 8.67125 12.8454 8.69582 12.9663 8.7335C13.2048 8.80067 13.422 8.935 13.6262 9.14468L14.5051 10.0211C15.508 11.0236 16.5453 12.0557 17.5499 13.0861C18.2099 13.7692 18.2099 14.4655 17.5418 15.1617C16.9864 15.7367 16.4048 16.315 15.8445 16.8719L15.2679 17.4469C14.608 18.1055 14.5148 18.5953 14.8954 19.452C15.3675 20.5169 16.0079 21.5538 16.8573 22.6219C18.8224 25.1005 20.8464 26.9876 23.0418 28.3967C23.4926 28.6866 23.9582 28.9258 24.4058 29.1552C24.5985 29.2551 24.7913 29.3517 24.9792 29.4533C25.3222 29.6384 26.0001 29.8399 26.7139 29.1175C27.4082 28.4212 28.0975 27.7218 28.7918 27.0255L28.8506 26.9666C28.9878 26.829 29.1185 26.6979 29.2443 26.5931C29.6494 26.2572 30.2816 25.9771 30.9889 26.5636C31.3189 26.8355 31.6325 27.155 31.9625 27.4941C32.0834 27.6153 32.2042 27.7414 32.3267 27.8627C33.2383 28.7686 34.1498 29.6777 35.0531 30.5935C35.5807 31.1259 35.6085 31.524 35.5709 31.8385C35.5284 32.1481 35.3782 32.4348 35.107 32.7149L35.0024 32.8247C34.2118 33.634 33.4016 34.4727 32.5815 35.2688C31.9298 35.9028 31.1049 36.1748 29.9843 36.1322C28.5713 36.0781 27.1321 35.7292 25.5933 35.0706C21.018 33.1114 17.029 30.0839 13.7341 26.0705C11.4047 23.2348 9.77775 20.3876 8.7586 17.3635C8.35675 16.1725 8.17708 15.1323 8.17708 13.9921V13.9495C8.13461 12.9813 8.52338 12.1131 9.33523 11.3792L9.31697 11.389Z" fill="black"/>
    <path d="M23.5305 3.89137C22.9571 3.81929 22.4393 4.23866 22.3723 4.81365C22.3054 5.38865 22.7187 5.90797 23.292 5.97511C30.7277 6.82694 37.1673 13.0881 38.2746 20.532C38.3498 21.0513 38.7974 21.4248 39.307 21.4248C39.3577 21.4248 39.4116 21.4248 39.4622 21.4117C40.0356 21.3281 40.4276 20.7908 40.3411 20.2207C39.0784 11.7284 32.0101 4.85951 23.5256 3.88992L23.5305 3.89137Z" fill="black"/>
    <path d="M32.1375 20.5449C32.2127 21.0642 32.6603 21.4377 33.1699 21.4377C33.2206 21.4377 33.2745 21.4377 33.3251 21.4246C33.8985 21.341 34.2905 20.8086 34.204 20.2336C33.4003 14.8195 28.8345 10.4031 23.583 9.96401C23.0064 9.91323 22.5049 10.3457 22.4542 10.9207C22.4036 11.499 22.8348 12.0019 23.4082 12.0527C27.1261 12.3623 31.4076 15.6255 32.1394 20.5399L32.1375 20.5449Z" fill="black"/>
</svg>
