<svg width="39" height="38" viewBox="0 0 39 38" fill="none" xmlns="http://www.w3.org/2000/svg">
    <path d="M0 36.5498H38.2337V37.5459H0V36.5498Z" fill="black"/>
    <path d="M6.63355 31.9558C6.63203 31.9558 6.63051 31.9558 6.62898 31.9558C4.55558 31.9384 2.49894 30.8168 1.38937 29.099C0.269139 27.3648 0.134569 25.0773 1.02019 22.8236C1.10449 22.61 1.32691 22.48 1.55797 22.5089C2.61016 22.6399 3.65016 23.0189 4.56574 23.6051C5.48133 24.1913 6.25371 24.9722 6.79961 25.8642C7.97418 27.7832 8.08031 30.1375 7.06367 31.7232C6.97023 31.8677 6.80773 31.9558 6.63355 31.9558ZM1.82965 23.5608C1.2157 25.3896 1.36195 27.1955 2.24707 28.5656C3.12457 29.9238 4.70895 30.8372 6.34461 30.9483C7.00426 29.6783 6.85039 27.8818 5.92871 26.3762C5.05019 24.9413 3.50543 23.8885 1.82965 23.5608Z" fill="black"/>
    <path d="M6.22324 31.0957H7.23886V37.0484H6.22324V31.0957Z" fill="black"/>
    <path d="M20.1591 35.4586C19.9017 35.4586 19.6462 35.4427 19.3939 35.4108C19.2192 35.3889 19.0684 35.2793 18.9962 35.1219C18.2107 33.4151 18.6443 31.0972 20.0753 29.354C20.2028 29.1991 20.3384 29.0482 20.4786 28.9058C21.8349 27.5252 23.8002 26.7124 25.7359 26.7338C25.9695 26.7363 26.1716 26.8947 26.225 27.1178C26.7876 29.4691 26.3352 31.7168 24.9839 33.2846C23.9789 34.4506 22.492 35.227 20.9051 35.4148C20.6558 35.4437 20.407 35.4586 20.1591 35.4586ZM19.8159 34.451C20.1343 34.4725 20.4582 34.464 20.7822 34.4251C22.1178 34.2668 23.366 33.6163 24.2074 32.6406C25.2753 31.4015 25.6725 29.6324 25.319 27.7384C23.792 27.828 22.2803 28.5054 21.2088 29.5956C21.0894 29.7171 20.9737 29.8461 20.865 29.9781C19.7432 31.3457 19.34 33.1048 19.8159 34.451Z" fill="black"/>
    <path d="M18.6037 31.0957H19.6194V37.0484H18.6037V31.0957Z" fill="black"/>
    <path d="M32.5284 35.4575C32.2761 35.4575 32.0242 35.4421 31.7743 35.4102C31.5997 35.3883 31.4493 35.2787 31.3767 35.1214C30.5906 33.4141 31.0243 31.0961 32.4553 29.353C33.1206 28.5427 33.9945 27.8728 34.9832 27.4151C35.9719 26.9574 37.0536 26.7223 38.1154 26.7328C38.349 26.7352 38.5511 26.8936 38.6044 27.1168C39.1671 29.468 38.7151 31.7162 37.3633 33.2836C36.1872 34.6472 34.351 35.4575 32.5284 35.4575ZM32.1963 34.4505C33.833 34.5601 35.5291 33.8678 36.5879 32.6401C37.6563 31.4015 38.0529 29.6324 37.6995 27.7383C35.9938 27.8384 34.3165 28.6736 33.2465 29.9775C32.1232 31.3452 31.72 33.1043 32.1963 34.4505Z" fill="black"/>
    <path d="M31.394 31.9558C31.3925 31.9558 31.3909 31.9558 31.3894 31.9558C29.316 31.9384 27.2594 30.8168 26.1498 29.099C25.0296 27.3648 24.895 25.0773 25.7806 22.8236C25.8649 22.61 26.0868 22.48 26.3184 22.5089C27.3706 22.6399 28.4106 23.0189 29.3262 23.6051C30.2418 24.1913 31.0141 24.9722 31.56 25.8642C32.7346 27.7832 32.8407 30.1375 31.8236 31.7232C31.7307 31.8677 31.5682 31.9558 31.394 31.9558ZM26.5906 23.5608C25.9766 25.3896 26.1229 27.1955 27.008 28.5656C27.8855 29.9238 29.4699 30.8372 31.1056 30.9483C31.7652 29.6783 31.6113 27.8818 30.6897 26.3762C29.8106 24.9413 28.2659 23.8885 26.5906 23.5608Z" fill="black"/>
    <path d="M30.9842 31.0957H31.9998V37.0484H30.9842V31.0957Z" fill="black"/>
    <path d="M19.0135 31.9558C19.012 31.9558 19.011 31.9558 19.0095 31.9558C18.4179 31.9509 17.8222 31.8577 17.2392 31.6789C16.5836 31.4782 15.9656 31.1764 15.4025 30.7814C14.8418 30.388 14.3584 29.9178 13.9664 29.3834C13.9009 29.2958 13.8359 29.2016 13.7693 29.098C13.2158 28.2404 12.9 27.2612 12.8319 26.1875C12.7623 25.0942 12.9538 23.9627 13.4012 22.8241C13.4855 22.61 13.7079 22.48 13.9395 22.5089C14.6098 22.5926 15.2704 22.7748 15.9037 23.0493C16.5618 23.3351 17.1732 23.7142 17.7221 24.1758C18.3046 24.6664 18.7952 25.2342 19.1806 25.8637C20.3552 27.7827 20.4608 30.1375 19.4441 31.7227C19.3502 31.8682 19.1882 31.9558 19.0135 31.9558ZM14.2101 23.5608C13.9151 24.4343 13.7927 25.2955 13.845 26.1252C13.9024 27.0297 14.1659 27.8509 14.6275 28.5656C14.6824 28.6508 14.7347 28.727 14.7885 28.7992C15.1181 29.248 15.5223 29.6414 15.993 29.9716C16.4679 30.3048 16.9894 30.5593 17.5419 30.7286C17.9329 30.8487 18.3295 30.9224 18.7246 30.9488C19.3847 29.6793 19.2303 27.8823 18.3087 26.3767C17.9791 25.8388 17.5591 25.3527 17.0595 24.9319C16.5867 24.5339 16.0591 24.2067 15.4918 23.9607C15.0754 23.7794 14.6458 23.6459 14.2101 23.5608Z" fill="black"/>
    <path d="M7.7797 35.4586C7.52326 35.4586 7.26732 35.4427 7.01341 35.4103C6.83873 35.3879 6.68841 35.2788 6.6158 35.1214C5.8292 33.4141 6.26236 31.0957 7.69439 29.3531C8.53787 28.3251 9.72666 27.5222 11.0419 27.0929C11.7985 26.8459 12.579 26.7244 13.355 26.7328C13.5886 26.7353 13.7907 26.8942 13.844 27.1173C13.9948 27.7489 14.0751 28.3779 14.0822 28.9875C14.0827 29.0199 14.0827 29.0567 14.0827 29.0931V29.0941C14.0791 30.7152 13.5672 32.164 12.6024 33.2836C12.2804 33.6562 11.9087 33.9914 11.4979 34.2797C10.4092 35.0452 9.08783 35.4586 7.7797 35.4586ZM7.43591 34.4511C8.64298 34.5332 9.89271 34.1826 10.9068 33.4699C11.2501 33.2289 11.5599 32.95 11.8275 32.6407C12.6354 31.7033 13.064 30.4762 13.0676 29.0931C13.0676 29.0632 13.0676 29.0328 13.067 29.0029C13.062 28.5891 13.0193 28.1657 12.9396 27.7384C12.4099 27.7688 11.8813 27.8689 11.3633 28.0382C10.2309 28.4078 9.2092 29.0966 8.48607 29.9776C7.36228 31.3457 6.95908 33.1048 7.43591 34.4511Z" fill="black"/>
    <path d="M31.3503 20.4211H0.5271C0.246787 20.4211 0.0192871 20.198 0.0192871 19.923V18.0454C0.0192871 17.263 0.668271 16.626 1.46655 16.626H30.4108C31.2086 16.626 31.8581 17.2625 31.8581 18.0454V19.923C31.8581 20.198 31.6306 20.4211 31.3503 20.4211ZM1.03491 19.425H30.8425V18.0454C30.8425 17.8118 30.649 17.6221 30.4108 17.6221H1.46655C1.22839 17.6221 1.03491 17.8118 1.03491 18.0454V19.425Z" fill="black"/>
    <path d="M25.1855 17.6227H6.69196C6.41164 17.6227 6.18414 17.3996 6.18414 17.1247V14.3874C6.18414 13.4611 6.95246 12.708 7.89649 12.708H23.9809C24.9255 12.708 25.6933 13.4616 25.6933 14.3874V17.1247C25.6933 17.3996 25.4663 17.6227 25.1855 17.6227ZM7.19977 16.6266H24.6777V14.3874C24.6777 14.0104 24.3648 13.7041 23.9809 13.7041H7.89649C7.51207 13.7041 7.19977 14.0109 7.19977 14.3874V16.6266Z" fill="black"/>
    <path d="M21.7882 13.7038H10.0593C9.80435 13.7038 9.58903 13.5185 9.55603 13.271L8.01532 1.8358C7.95286 1.37212 8.09759 0.904951 8.41142 0.55333C8.72575 0.201709 9.17923 0 9.65607 0H22.2214C22.6982 0 23.1517 0.201709 23.466 0.55333C23.7804 0.904951 23.9246 1.37262 23.8621 1.8358L22.6855 10.57L22.3229 13.2575C22.3001 13.4278 22.1894 13.5743 22.0299 13.6455L21.9984 13.6594C21.9324 13.6883 21.8608 13.7038 21.7882 13.7038ZM10.5046 12.7077H21.3728L21.679 10.4391L22.8556 1.70481C22.88 1.52303 22.8257 1.34722 22.7028 1.20926C22.5794 1.0713 22.4088 0.995595 22.2219 0.995595H9.65607C9.46919 0.995595 9.29857 1.0713 9.17517 1.20926C9.05177 1.34722 8.99743 1.52303 9.02232 1.70481L10.5046 12.7077Z" fill="black"/>
    <path d="M21.8182 13.7033H21.7887C21.5495 13.7033 21.3429 13.54 21.2926 13.3109C21.2418 13.0818 21.3611 12.8492 21.5785 12.7521L21.61 12.7381C21.777 12.6634 21.9715 12.6833 22.1198 12.7894C22.2681 12.8955 22.3463 13.0713 22.3245 13.2501L22.3229 13.2641C22.292 13.5146 22.0751 13.7033 21.8182 13.7033Z" fill="black"/>
    <path d="M18.393 13.7037H13.4839C13.3392 13.7037 13.2016 13.6429 13.1051 13.5373C13.0086 13.4317 12.9629 13.2903 12.9797 13.1493L13.4738 8.90049C13.5368 8.35812 14.0045 7.94922 14.561 7.94922H17.3164C17.873 7.94922 18.3402 8.35812 18.4036 8.90049L18.8977 13.1493C18.914 13.2903 18.8683 13.4317 18.7723 13.5373C18.6763 13.6429 18.5377 13.7037 18.393 13.7037ZM14.0532 12.7076H17.8237L17.3941 9.01355C17.3895 8.9747 17.356 8.94531 17.3164 8.94531H14.561C14.5209 8.94531 14.4874 8.9747 14.4828 9.01355L14.0532 12.7076Z" fill="black"/>
    <path d="M8.81818 3.49316H23.0598V4.48926H8.81818V3.49316Z" fill="black"/>
    <path d="M0.0192871 19.9238H1.03491V25.0074H0.0192871V19.9238Z" fill="black"/>
    <path d="M7.72534 19.9238H8.74097V25.0074H7.72534V19.9238Z" fill="black"/>
    <path d="M15.4309 19.9238H16.4465V23.5058H15.4309V19.9238Z" fill="black"/>
    <path d="M23.137 19.9238H24.1526V25.0074H23.137V19.9238Z" fill="black"/>
    <path d="M30.8425 19.9238H31.8581V25.0074H30.8425V19.9238Z" fill="black"/>
    <path d="M21.8197 13.6895C21.7105 13.6895 21.6023 13.6552 21.513 13.5884C21.3677 13.4804 21.2926 13.3036 21.3164 13.1263L21.679 10.4393C21.7024 10.2645 21.8187 10.1151 21.9842 10.0463L32.7189 5.57985C33.5964 5.21478 34.6059 5.287 35.4199 5.77409L38.6039 7.67812C38.7501 7.76578 38.8416 7.91967 38.8471 8.08801C38.8522 8.25635 38.771 8.41573 38.6303 8.51185L35.2945 10.7949C35.1797 10.8736 35.037 10.902 34.8999 10.8741C34.7628 10.8462 34.644 10.7635 34.5709 10.6465L33.4867 8.9088C33.4653 8.87443 33.4212 8.86098 33.3836 8.87642L22.0208 13.6497C21.9553 13.6761 21.8872 13.6895 21.8197 13.6895ZM22.6474 10.8517L22.4402 12.3891L32.9829 7.96051C33.4806 7.75133 34.0696 7.93511 34.3525 8.38834L35.1553 9.67479L37.411 8.13085L34.8913 6.62376C34.356 6.30401 33.6923 6.2562 33.1155 6.49626L22.6474 10.8517Z" fill="black"/>
</svg>
