<svg width="42" height="42" viewBox="0 0 42 42" fill="none" xmlns="http://www.w3.org/2000/svg">
    <path d="M26.905 42H0.65625C0.570056 42 0.484698 41.9831 0.405056 41.9501C0.325414 41.9172 0.25305 41.8688 0.192102 41.8079C0.131153 41.747 0.0828163 41.6746 0.049854 41.5949C0.0168918 41.5153 -4.90658e-05 41.4299 1.06739e-07 41.3438V22.9688C-4.90658e-05 22.8826 0.0168918 22.7972 0.049854 22.7176C0.0828163 22.6379 0.131153 22.5655 0.192102 22.5046C0.25305 22.4437 0.325414 22.3953 0.405056 22.3624C0.484698 22.3294 0.570056 22.3125 0.65625 22.3125H26.905C26.9912 22.3125 27.0765 22.3294 27.1562 22.3624C27.2358 22.3953 27.3082 22.4437 27.3691 22.5046C27.4301 22.5655 27.4784 22.6379 27.5114 22.7176C27.5443 22.7972 27.5613 22.8826 27.5612 22.9688V41.3438C27.5613 41.4299 27.5443 41.5153 27.5114 41.5949C27.4784 41.6746 27.4301 41.747 27.3691 41.8079C27.3082 41.8688 27.2358 41.9172 27.1562 41.9501C27.0765 41.9831 26.9912 42 26.905 42ZM1.3125 40.6875H26.2487V23.625H1.3125V40.6875Z" fill="black"/>
    <path d="M28.2188 36.0938H26.9062C26.7322 36.0938 26.5653 36.0246 26.4422 35.9015C26.3191 35.7785 26.25 35.6115 26.25 35.4375C26.25 35.2635 26.3191 35.0965 26.4422 34.9735C26.5653 34.8504 26.7322 34.7812 26.9062 34.7812H27.8676L30.9303 30.1875H26.9062C26.7322 30.1875 26.5653 30.1184 26.4422 29.9953C26.3191 29.8722 26.25 29.7053 26.25 29.5312C26.25 29.3572 26.3191 29.1903 26.4422 29.0672C26.5653 28.9441 26.7322 28.875 26.9062 28.875H32.1562C32.275 28.875 32.3916 28.9072 32.4935 28.9683C32.5954 29.0293 32.6788 29.1168 32.7349 29.2216C32.7909 29.3263 32.8175 29.4443 32.8117 29.5629C32.806 29.6816 32.7682 29.7964 32.7023 29.8953L28.7648 35.8015C28.7048 35.8914 28.6236 35.9651 28.5284 36.0161C28.4331 36.067 28.3268 36.0937 28.2188 36.0938Z" fill="black"/>
    <path d="M23.625 42C23.5388 42 23.4534 41.9831 23.3738 41.9501C23.2942 41.9172 23.2218 41.8688 23.1609 41.8079C23.0999 41.747 23.0516 41.6746 23.0186 41.5949C22.9856 41.5153 22.9687 41.4299 22.9688 41.3438V26.9063H4.59375V41.3438C4.59375 41.5178 4.52461 41.6847 4.40154 41.8078C4.27847 41.9309 4.11155 42 3.9375 42C3.76345 42 3.59653 41.9309 3.47346 41.8078C3.35039 41.6847 3.28125 41.5178 3.28125 41.3438V26.25C3.2812 26.1638 3.29814 26.0784 3.3311 25.9988C3.36407 25.9192 3.4124 25.8468 3.47335 25.7859C3.5343 25.7249 3.60666 25.6766 3.68631 25.6436C3.76595 25.6106 3.85131 25.5937 3.9375 25.5938H23.625C23.7112 25.5937 23.7966 25.6106 23.8762 25.6436C23.9558 25.6766 24.0282 25.7249 24.0891 25.7859C24.1501 25.8468 24.1984 25.9192 24.2314 25.9988C24.2644 26.0784 24.2813 26.1638 24.2812 26.25V41.3438C24.2813 41.4299 24.2644 41.5153 24.2314 41.5949C24.1984 41.6746 24.1501 41.747 24.0891 41.8079C24.0282 41.8688 23.9558 41.9172 23.8762 41.9501C23.7966 41.9831 23.7112 42 23.625 42Z" fill="black"/>
    <path d="M20.3437 34.7812H7.21808C7.04403 34.7812 6.87711 34.7121 6.75404 34.589C6.63097 34.466 6.56183 34.299 6.56183 34.125C6.56183 33.951 6.63097 33.784 6.75404 33.661C6.87711 33.5379 7.04403 33.4688 7.21808 33.4688H20.3437C20.5178 33.4688 20.6847 33.5379 20.8078 33.661C20.9308 33.784 21 33.951 21 34.125C21 34.299 20.9308 34.466 20.8078 34.589C20.6847 34.7121 20.5178 34.7812 20.3437 34.7812Z" fill="black"/>
    <path d="M26.905 23.625C26.7309 23.625 26.564 23.5559 26.4409 23.4328C26.3179 23.3097 26.2487 23.1428 26.2487 22.9688L26.25 17.9886L22.0408 13.7812H5.52173L1.3125 17.9905V22.9688C1.3125 23.1428 1.24336 23.3097 1.12029 23.4328C0.997218 23.5559 0.830298 23.625 0.65625 23.625C0.482202 23.625 0.315282 23.5559 0.192211 23.4328C0.0691404 23.3097 2.36207e-09 23.1428 2.36207e-09 22.9688V17.7188C-7.31161e-06 17.6326 0.0169709 17.5472 0.0499638 17.4676C0.0829568 17.388 0.131318 17.3157 0.192281 17.2548L4.78603 12.661C4.84694 12.6001 4.91927 12.5517 4.99888 12.5187C5.07849 12.4857 5.16382 12.4687 5.25 12.4688H22.3125C22.3987 12.4687 22.484 12.4857 22.5636 12.5187C22.6432 12.5517 22.7156 12.6001 22.7765 12.661L27.3702 17.2529C27.4932 17.3759 27.5624 17.5428 27.5625 17.7168L27.5612 22.9688C27.5612 23.1428 27.4921 23.3097 27.369 23.4328C27.2459 23.5558 27.079 23.625 26.905 23.625Z" fill="black"/>
    <path d="M11.1569 13.7813C11.0418 13.7814 10.9286 13.7513 10.8288 13.6938C10.729 13.6363 10.6461 13.5535 10.5885 13.4538L3.36973 0.985031C3.31202 0.885287 3.28159 0.772106 3.28149 0.656869C3.2814 0.541632 3.31165 0.428402 3.3692 0.328563C3.42675 0.228725 3.50957 0.145799 3.60933 0.0881224C3.7091 0.0304462 3.82229 5.33085e-05 3.93753 0L19.0313 0C19.1232 -1.28298e-06 19.2142 0.019329 19.2982 0.0567367C19.3822 0.0941444 19.4574 0.148794 19.5189 0.21714C19.5804 0.285485 19.6269 0.366 19.6552 0.453461C19.6836 0.540922 19.6933 0.633375 19.6837 0.724822L18.3712 13.1936C18.3624 13.2794 18.3367 13.3626 18.2957 13.4385C18.2546 13.5144 18.199 13.5815 18.132 13.6359C18.0651 13.6902 17.988 13.7309 17.9053 13.7554C17.8226 13.78 17.7358 13.788 17.65 13.7789C17.5642 13.7699 17.481 13.7441 17.4053 13.7028C17.3295 13.6616 17.2625 13.6059 17.2083 13.5388C17.1541 13.4716 17.1137 13.3945 17.0893 13.3117C17.0649 13.229 17.0571 13.1422 17.0664 13.0564L18.3026 1.3125H5.07571L11.7241 12.7962C11.7673 12.8708 11.7954 12.9531 11.8067 13.0385C11.8181 13.124 11.8125 13.2108 11.7903 13.294C11.7681 13.3773 11.7297 13.4554 11.6774 13.5238C11.625 13.5922 11.5596 13.6496 11.485 13.6928C11.3855 13.7509 11.2722 13.7814 11.1569 13.7813Z" fill="black"/>
    <path d="M39.7031 25.5938H26.905C26.7309 25.5938 26.564 25.5246 26.4409 25.4015C26.3179 25.2785 26.2487 25.1115 26.2487 24.9375C26.2487 24.7635 26.3179 24.5965 26.4409 24.4735C26.564 24.3504 26.7309 24.2812 26.905 24.2812H39.7031C39.9642 24.2812 40.2146 24.1775 40.3992 23.9929C40.5838 23.8083 40.6875 23.5579 40.6875 23.2969C40.6875 23.0358 40.5838 22.7854 40.3992 22.6008C40.2146 22.4162 39.9642 22.3125 39.7031 22.3125H26.9069C26.7329 22.3125 26.5659 22.2434 26.4429 22.1203C26.3198 21.9972 26.2507 21.8303 26.2507 21.6562C26.2507 21.4822 26.3198 21.3153 26.4429 21.1922C26.5659 21.0691 26.7329 21 26.9069 21H39.7031C40.3123 21 40.8965 21.242 41.3273 21.6727C41.758 22.1035 42 22.6877 42 23.2969C42 23.906 41.758 24.4903 41.3273 24.921C40.8965 25.3518 40.3123 25.5938 39.7031 25.5938Z" fill="black"/>
    <path d="M26.9069 18.3728C26.7708 18.3729 26.6381 18.3307 26.5271 18.2521C26.416 18.1735 26.3322 18.0622 26.2872 17.9339C26.2421 17.8055 26.2381 17.6662 26.2756 17.5355C26.3132 17.4047 26.3904 17.2888 26.4967 17.2039L29.2051 15.039L24.7126 10.5465L21.6562 11.0554V13.1247C21.6562 13.2988 21.5871 13.4657 21.464 13.5888C21.341 13.7119 21.174 13.781 21 13.781C20.826 13.781 20.659 13.7119 20.536 13.5888C20.4129 13.4657 20.3438 13.2988 20.3438 13.1247V10.4997C20.3437 10.3444 20.3988 10.194 20.4993 10.0755C20.5998 9.95692 20.739 9.87789 20.8923 9.85247L24.8298 9.19622C24.9328 9.17929 25.0384 9.18709 25.1378 9.21895C25.2371 9.25082 25.3275 9.30585 25.4015 9.37951L30.6515 14.6295C30.7167 14.6948 30.7674 14.7732 30.8004 14.8594C30.8333 14.9456 30.8476 15.0379 30.8425 15.13C30.8373 15.2222 30.8128 15.3122 30.7705 15.3943C30.7282 15.4763 30.6691 15.5485 30.597 15.6062L27.3158 18.2293C27.1999 18.3224 27.0556 18.3731 26.9069 18.3728Z" fill="black"/>
    <path d="M32.1563 22.312C32.0701 22.3121 31.9847 22.2952 31.9051 22.2622C31.8255 22.2292 31.7532 22.1808 31.6923 22.1198L30.217 20.6445C29.7903 20.2201 29.452 19.7154 29.2216 19.1594C28.9913 18.6035 28.8735 18.0073 28.875 17.4056V15.6182C28.875 15.4441 28.9442 15.2772 29.0672 15.1541C29.1903 15.0311 29.3572 14.9619 29.5313 14.9619C29.7053 14.9619 29.8722 15.0311 29.9953 15.1541C30.1184 15.2772 30.1875 15.4441 30.1875 15.6182V17.4056C30.1865 17.8349 30.2706 18.2602 30.4349 18.6569C30.5992 19.0536 30.8406 19.4137 31.145 19.7165L32.6202 21.1918C32.712 21.2836 32.7745 21.4005 32.7998 21.5278C32.8251 21.6551 32.8121 21.787 32.7624 21.9069C32.7128 22.0268 32.6287 22.1293 32.5208 22.2014C32.4129 22.2735 32.286 22.312 32.1563 22.312Z" fill="black"/>
    <path d="M28.2181 13.7812C28.1084 13.7811 28.0004 13.7535 27.9041 13.7008C27.8078 13.6482 27.7262 13.5722 27.6669 13.4799C27.6075 13.3876 27.5722 13.2818 27.5643 13.1724C27.5564 13.0629 27.576 12.9532 27.6215 12.8533L30.481 6.5625H26.009L24.2178 10.343C24.181 10.4208 24.1291 10.4907 24.0653 10.5485C24.0014 10.6063 23.9268 10.651 23.8457 10.6799C23.7646 10.7089 23.6786 10.7216 23.5925 10.7174C23.5065 10.7131 23.4222 10.6919 23.3443 10.6551C23.2665 10.6182 23.1966 10.5664 23.1388 10.5025C23.081 10.4387 23.0363 10.3641 23.0074 10.283C22.9784 10.2019 22.9657 10.1158 22.9699 10.0298C22.9742 9.94378 22.9954 9.85943 23.0322 9.78158L25.001 5.62555C25.054 5.51318 25.1379 5.41821 25.2428 5.35172C25.3478 5.28522 25.4695 5.24994 25.5938 5.25H31.5C31.6098 5.25003 31.7179 5.27761 31.8143 5.33021C31.9107 5.38281 31.9923 5.45876 32.0517 5.5511C32.1112 5.64343 32.1465 5.74921 32.1544 5.85873C32.1624 5.96825 32.1428 6.07802 32.0973 6.17798L28.8161 13.3967C28.7639 13.5115 28.6798 13.6088 28.5737 13.677C28.4677 13.7452 28.3442 13.7814 28.2181 13.7812Z" fill="black"/>
    <path d="M3.9375 21.6559C3.85131 21.6559 3.76595 21.639 3.68631 21.606C3.60666 21.5731 3.5343 21.5247 3.47335 21.4638C3.4124 21.4028 3.36407 21.3305 3.3311 21.2508C3.29814 21.1712 3.2812 21.0858 3.28125 20.9996V18.3746C3.28124 18.2885 3.29822 18.2031 3.33121 18.1235C3.36421 18.0439 3.41257 17.9716 3.47353 17.9107L6.09853 15.2857C6.22196 15.1644 6.38827 15.0969 6.56127 15.0977C6.73427 15.0984 6.89996 15.1675 7.02228 15.2898C7.14461 15.4122 7.21368 15.5779 7.21447 15.7509C7.21525 15.9239 7.14768 16.0902 7.02647 16.2136L4.59375 18.6464V20.9996C4.5938 21.0858 4.57686 21.1712 4.5439 21.2508C4.51093 21.3305 4.4626 21.4028 4.40165 21.4638C4.3407 21.5247 4.26834 21.5731 4.18869 21.606C4.10905 21.639 4.02369 21.6559 3.9375 21.6559Z" fill="black"/>
    <path d="M11.3991 8.53113C11.284 8.53131 11.1708 8.50114 11.071 8.44365C10.9712 8.38616 10.8883 8.30338 10.8307 8.20366L8.17108 3.60991C8.08389 3.45932 8.06008 3.28026 8.10491 3.11211C8.14974 2.94397 8.25952 2.80052 8.41011 2.71332C8.56071 2.62612 8.73977 2.60232 8.90791 2.64715C9.07606 2.69197 9.21951 2.80176 9.3067 2.95235L11.9663 7.5461C12.0095 7.62066 12.0376 7.703 12.049 7.78842C12.0603 7.87383 12.0548 7.96065 12.0326 8.04392C12.0104 8.12718 11.972 8.20525 11.9196 8.27367C11.8672 8.34209 11.8019 8.39952 11.7273 8.44267C11.6277 8.50077 11.5144 8.5313 11.3991 8.53113Z" fill="black"/>
</svg>
