<svg width="32" height="44" viewBox="0 0 32 44" fill="none" xmlns="http://www.w3.org/2000/svg">
    <path fill-rule="evenodd" clip-rule="evenodd" d="M19.7197 10.665C20.7257 10.2483 21.8329 10.0179 22.9927 10.0179H23.8024C24.6971 10.0179 25.4217 10.7351 25.4217 11.6205V14.0244C25.4217 15.9915 24.7396 17.8004 23.5979 19.2326C24.5452 19.2326 25.4217 19.8075 25.4217 20.8351V22.8383C25.4217 27.4857 21.6142 31.2516 16.9204 31.2516V33.2088C18.6065 31.3898 21.0294 30.2501 23.7215 30.2501C26.1688 30.2501 28.5167 31.2136 30.2475 32.9264L30.8669 33.5393C32.0308 34.6912 31.207 36.6603 29.5613 36.6603H24.5111C23.9828 36.6603 23.4767 36.8646 23.0982 37.2272L18.6957 41.468H23.1954C23.8654 41.468 24.4099 42.0069 24.4099 42.6699C24.4099 43.335 23.8654 43.8719 23.1954 43.8719H8.4189C7.74687 43.8719 7.20439 43.335 7.20439 42.6699C7.20439 42.0069 7.74687 41.468 8.4189 41.468H12.7162L8.31164 37.2272C7.93515 36.8647 7.4271 36.6603 6.90078 36.6603H1.85053C0.20489 36.6603 -0.618914 34.6912 0.544974 33.5393L1.16436 32.9264C2.89498 31.2136 5.24302 30.2501 7.69034 30.2501C10.3824 30.2501 12.8033 31.3899 14.4915 33.2088V31.2516C9.79545 31.2516 5.99018 27.4856 5.99018 22.8383V20.8351C5.99018 19.8075 6.86461 19.2326 7.81392 19.2326C6.67232 17.8003 5.99018 15.9914 5.99018 14.0244V11.6205C5.99018 10.7351 6.71481 10.0179 7.6095 10.0179H8.41916C9.57901 10.0179 10.6842 10.2483 11.6922 10.665C10.7469 7.18539 11.6537 3.31523 14.4127 0.582923C15.198 -0.194308 16.2121 -0.194308 16.9995 0.582923C19.7584 3.31528 20.6649 7.18549 19.7197 10.665ZM16.9203 39.8234L21.4058 35.5045C22.2357 34.7052 23.351 34.2565 24.5108 34.2565H28.126C26.9014 33.2269 25.3407 32.6539 23.7214 32.6539C19.6671 32.6539 16.9203 36.0336 16.9203 39.8234ZM7.69044 32.6542C6.07112 32.6542 4.51052 33.2271 3.2859 34.2568H6.90104C8.06089 34.2568 9.17415 34.7055 10.0061 35.5048L14.4916 39.8237C14.4916 36.0036 11.7408 32.6542 7.69044 32.6542ZM15.7062 2.73626C18.3011 5.72903 18.3011 10.1681 15.7062 13.1609C13.1092 10.1681 13.1092 5.72908 15.7062 2.73626ZM16.9207 28.8481V27.6461C16.9207 24.3268 19.6391 21.6364 22.9933 21.6364V22.8383C22.9933 26.1576 20.2748 28.8481 16.9207 28.8481ZM14.4917 27.6461V28.8481C11.1377 28.8481 8.41916 26.1577 8.41916 22.8383V21.6364C11.7732 21.6364 14.4917 24.3267 14.4917 27.6461ZM8.41916 12.4215C11.7732 12.4215 14.4917 15.1118 14.4917 18.4312V20.0338C11.1377 20.0338 8.41916 17.3435 8.41916 14.0241V12.4215ZM22.993 14.0241C22.993 17.3434 20.2746 20.0338 16.9205 20.0338V18.4312C16.9205 15.1119 19.6389 12.4215 22.993 12.4215V14.0241Z" fill="#5B8C51"/>
</svg>
