<svg width="49" height="49" viewBox="0 0 49 49" fill="none" xmlns="http://www.w3.org/2000/svg">
    <path d="M42.2037 44.8648C41.9979 43.8652 40.6749 43.0175 40.1065 42.6892C40.5083 40.1363 41.0767 30.8459 41.2237 24.3044C41.3511 18.5763 40.5328 15.749 40.2241 14.8866C40.9983 14.5142 41.5422 13.7302 41.5422 12.8139C41.5422 11.5448 40.5083 10.5158 39.2441 10.5158H38.9844C39.249 9.6534 39.4744 8.497 38.9256 8.1344C38.8423 8.0805 38.7737 8.0217 38.7051 7.9678C39.4205 7.5366 39.7635 6.88 39.4989 6.4096C39.2931 6.0372 38.7835 5.9294 38.2151 6.0862C38.2151 5.6354 38.1171 5.1601 37.534 4.9053C36.9705 4.6603 36.4266 4.5819 35.9415 4.5133C35.9219 4.5133 35.9072 4.5084 35.8876 4.5035C36.0493 3.7293 35.819 3.0678 35.3192 2.9306C34.8733 2.8081 34.398 3.156 34.1187 3.7636C33.5944 3.6068 33.1583 3.8665 32.7663 4.1066C32.4135 4.3222 32.046 4.5476 31.5217 4.5917C31.3796 4.6064 31.2228 4.4594 30.9778 4.2144C30.5662 3.8028 29.9782 3.2099 28.9247 3.5333C28.7924 3.2344 28.616 2.9747 28.4102 2.7934C28.1211 2.5386 27.7928 2.4504 27.5086 2.5631C27.0823 2.7297 26.9059 3.2785 27.0333 3.9253C26.6805 3.8861 26.3081 3.8175 25.9406 3.7489C25.0243 3.5725 24.0786 3.3912 23.3142 3.7048C23.03 3.8224 22.7801 3.8861 22.5449 3.9204C22.5596 3.6215 22.5253 3.3324 22.4371 3.0972C22.3048 2.7346 22.0549 2.5043 21.756 2.4651C21.2415 2.4014 20.7662 2.9355 20.6192 3.7293C20.1831 3.6901 19.7323 3.7783 19.2815 4.2634C18.9875 4.5819 18.62 4.4643 17.8507 4.1213C17.1353 3.8028 16.1945 3.3912 15.3419 4.0037C15.1508 3.7342 14.9156 3.5137 14.6755 3.3765C14.3374 3.1854 13.9993 3.1756 13.7445 3.3422C13.3427 3.6068 13.2986 4.2291 13.6073 4.871C13.5681 4.8808 13.524 4.8906 13.4848 4.9004C12.4264 5.1601 11.3386 5.4296 11.0005 6.1156C10.9074 6.3067 10.8339 6.6252 11.0152 7.0319C11.0838 7.1838 11.1034 7.3308 11.0838 7.4778C10.5056 7.1348 9.91756 7.1103 9.61866 7.468C9.29036 7.8551 9.46186 8.5117 10.0009 9.0507C9.64316 9.4868 9.34426 9.9964 9.54516 10.5403C8.39366 10.6677 7.49206 11.633 7.49206 12.8139C7.49206 13.7155 8.01636 14.4897 8.77586 14.867C8.47206 15.7 7.63906 18.5273 7.77136 24.2995C7.91836 30.841 8.48676 40.1314 8.88856 42.6843C8.32016 43.0077 6.99716 43.8603 6.79136 44.8599C6.70806 45.2568 6.81096 45.6439 7.08046 45.9722C7.36466 46.3152 7.73216 46.5063 8.17316 46.5357C9.23646 46.6043 10.4027 45.688 10.7996 45.3548C12.005 45.5263 19.3452 46.5308 24.5 46.4279C30.7377 46.3054 37.0832 45.4969 38.1857 45.3548C38.563 45.6782 39.6753 46.5406 40.6994 46.5406H40.817C41.258 46.5112 41.6255 46.3201 41.9097 45.9771C42.1792 45.6488 42.2821 45.2617 42.1988 44.8648H42.2037ZM38.8521 6.7575C38.8619 6.8359 38.7051 7.125 38.2788 7.3651C38.2249 7.2083 38.2004 7.0466 38.1955 6.88C38.5483 6.7232 38.8129 6.733 38.8521 6.7575ZM35.1134 3.6362C35.1673 3.6803 35.2457 3.9547 35.1624 4.3565C35.0154 4.3075 34.8831 4.2487 34.7851 4.1605C34.7753 4.1507 34.7655 4.1458 34.7557 4.136C34.8929 3.8077 35.0693 3.6411 35.1134 3.6313V3.6362ZM27.7634 3.254C27.8369 3.254 28.0672 3.4353 28.2436 3.8224C28.1064 3.8812 27.9594 3.9204 27.7977 3.9351C27.6899 3.5578 27.734 3.2883 27.7634 3.254ZM21.6531 3.1903C21.7168 3.2246 21.8393 3.499 21.805 3.9302C21.6433 3.9106 21.4914 3.8861 21.3493 3.8567C21.4277 3.4402 21.609 3.2099 21.6531 3.1903ZM14.1365 3.9596C14.2149 3.94 14.5187 4.0821 14.7882 4.4937C14.6804 4.5525 14.5236 4.6113 14.3374 4.6701C14.1218 4.2977 14.112 4.0086 14.1316 3.9596H14.1365ZM11.6669 6.439C11.8482 6.0617 12.8968 5.802 13.6661 5.6158C14.5187 5.4051 15.19 5.2385 15.484 4.8759C16.0573 4.1801 16.6453 4.3908 17.5567 4.7975C18.2623 5.1111 19.1492 5.5031 19.8254 4.7681C20.1831 4.381 20.4477 4.4202 21.0602 4.5476C21.658 4.675 22.4763 4.8514 23.5984 4.3859C24.1619 4.1556 24.9606 4.3075 25.8034 4.4741C26.8226 4.6701 27.8712 4.8759 28.7091 4.4202C29.6401 3.9155 30.0027 4.2781 30.4584 4.7338C30.7573 5.0327 31.1052 5.3708 31.5854 5.3267C32.2812 5.2679 32.7614 4.969 33.1485 4.7338C33.6728 4.4153 33.8492 4.3026 34.2902 4.7093C34.6969 5.0817 35.2506 5.1601 35.8337 5.2434C36.2894 5.3071 36.7647 5.3757 37.2351 5.5815C37.4752 5.6893 37.4948 5.8412 37.4703 6.39C37.436 7.0319 37.387 8.0021 38.4944 8.7273C38.6022 8.9037 38.4699 9.7269 38.2102 10.5158H10.4027C10.0695 10.1728 10.1969 9.9229 10.8633 9.1781C11.4366 8.5411 12.1471 7.7473 11.6865 6.7281C11.6081 6.5468 11.6473 6.4684 11.662 6.4341L11.6669 6.439ZM10.7702 8.1491C10.6869 8.2569 10.5987 8.3745 10.4909 8.4921C10.2459 8.2275 10.1675 7.9972 10.1724 7.9482C10.2312 7.9188 10.4713 7.9531 10.7702 8.1491ZM8.23196 12.8188C8.23196 11.9564 8.93266 11.2557 9.79506 11.2557H39.2392C40.1016 11.2557 40.8023 11.9564 40.8023 12.8188C40.8023 13.6812 40.1016 14.3819 39.2392 14.3819H9.79996C8.93756 14.3819 8.23686 13.6812 8.23686 12.8188H8.23196ZM41.3462 45.5067C41.1943 45.6929 41.0081 45.786 40.7729 45.8056C39.9791 45.8644 38.9109 45.0265 38.563 44.6982C38.4797 44.6247 38.3719 44.5904 38.2641 44.6051C38.1955 44.6149 31.2767 45.5606 24.5 45.6978C18.9532 45.8056 10.8339 44.6198 10.7506 44.61C10.6379 44.5904 10.5301 44.6296 10.4468 44.7031C10.0989 45.0265 9.02086 45.8595 8.23686 45.8105C7.99676 45.7958 7.81546 45.6978 7.66356 45.5116C7.53126 45.3548 7.48716 45.1931 7.52636 45.0167C7.65866 44.365 8.79546 43.5663 9.47656 43.2184C9.62356 43.1449 9.70196 42.9832 9.66766 42.8215C9.28056 40.7929 8.66316 30.9243 8.51616 24.2946C8.38876 18.5567 9.24136 15.7833 9.49126 15.0924C9.59416 15.1071 9.69706 15.1218 9.80486 15.1218H39.249C39.3421 15.1218 39.4303 15.1071 39.5234 15.0924C39.7782 15.7882 40.6259 18.5616 40.4985 24.2897C40.3515 30.9194 39.7341 40.7929 39.347 42.8166C39.3176 42.9783 39.396 43.14 39.5381 43.2135C40.2241 43.5663 41.356 44.365 41.4883 45.0118C41.5275 45.1931 41.4834 45.3499 41.3511 45.5067H41.3462Z" fill="black"/>
    <path d="M25.3477 27.367C25.1419 28.0481 25.4065 28.7733 26.1317 29.5328C25.3232 30.6745 24.8136 31.7721 24.4951 32.7178C24.0296 31.8211 23.5004 31.0665 22.981 30.454C23.6866 29.7043 23.9414 28.9889 23.7405 28.3127C23.1525 26.3772 18.9091 25.7794 18.4289 25.7157C18.3211 25.7059 18.2182 25.7353 18.1398 25.8039C18.0614 25.8725 18.0173 25.9705 18.0124 26.0783C18.0075 26.5634 18.0124 30.8509 19.845 31.7035C20.0557 31.8015 20.2811 31.8505 20.5163 31.8505C21.0945 31.8505 21.7364 31.5516 22.442 30.9636C23.0447 31.6839 23.6768 32.6051 24.1668 33.7272C24.1766 33.7468 24.1864 33.7615 24.2011 33.7811C23.9267 35.0012 23.9806 35.8097 23.9855 35.8881C24.0002 36.0792 24.1619 36.2262 24.353 36.2262H24.3824C24.5833 36.2115 24.7352 36.0351 24.7205 35.8342C24.7205 35.7999 24.5686 33.1245 26.6903 30.0473C27.3812 30.6157 28.0133 30.9048 28.5817 30.9048C28.8169 30.9048 29.0423 30.8558 29.253 30.7578C31.0905 29.9101 31.0905 25.6226 31.0856 25.1326C31.0856 25.0297 31.0366 24.9268 30.9582 24.8582C30.8798 24.7896 30.7769 24.7553 30.6691 24.77C30.1889 24.8337 25.9406 25.4315 25.3575 27.367H25.3477ZM20.1537 31.0371C19.1786 30.5863 18.7915 28.1804 18.7523 26.5095C20.3987 26.7839 22.7262 27.4993 23.0398 28.5283C23.1574 28.9252 22.9712 29.3858 22.491 29.9101C21.6139 28.9889 20.8936 28.5136 20.8348 28.4744C20.6633 28.3617 20.4379 28.4107 20.3252 28.5822C20.2125 28.7537 20.2615 28.9791 20.433 29.0918C20.4477 29.1016 21.119 29.5475 21.9471 30.4148C21.2023 31.0322 20.5996 31.2429 20.1537 31.0371ZM28.9345 30.0914C28.4837 30.3021 27.8712 30.0816 27.1215 29.4544C27.5919 28.8468 28.1407 28.2343 28.812 27.6267C28.9639 27.4895 28.9737 27.2592 28.8365 27.1073C28.6993 26.9554 28.469 26.9456 28.3171 27.0828C27.636 27.7002 27.0627 28.3274 26.5776 28.9399C26.1121 28.4303 25.9357 27.9746 26.0533 27.5826C26.362 26.5536 28.6944 25.8382 30.3408 25.5638C30.3016 27.2347 29.9096 29.6406 28.9394 30.0914H28.9345Z" fill="black"/>
    <path d="M24.5 19.6191C19.2472 19.6191 14.9744 23.8919 14.9744 29.1447C14.9744 34.3975 19.2472 38.6703 24.5 38.6703C29.7528 38.6703 34.0256 34.3975 34.0256 29.1447C34.0256 23.8919 29.7528 19.6191 24.5 19.6191ZM24.5 37.9402C19.6539 37.9402 15.7094 33.9957 15.7094 29.1496C15.7094 24.3035 19.6539 20.359 24.5 20.359C29.3461 20.359 33.2906 24.3035 33.2906 29.1496C33.2906 33.9957 29.3461 37.9402 24.5 37.9402Z" fill="black"/>
    <path d="M34.1481 9.75115C34.5009 9.75115 34.9174 9.59435 35.3045 9.29545C36.0003 8.75645 36.2649 8.02145 35.9268 7.58045C35.5887 7.13945 34.8047 7.21295 34.1138 7.75195C33.418 8.29095 33.1534 9.02595 33.4915 9.46695C33.6385 9.65805 33.8737 9.75115 34.1481 9.75115ZM34.5597 8.33015C34.8929 8.07045 35.182 8.01165 35.2947 8.01165H35.3339C35.3535 8.08515 35.2408 8.40365 34.8488 8.70255C34.4568 9.00635 34.1236 9.03085 34.0697 9.01615C34.0501 8.94265 34.1628 8.62415 34.5548 8.32525L34.5597 8.33015Z" fill="black"/>
    <path d="M13.8523 8.47684C14.0483 8.47684 14.2541 8.44744 14.4697 8.39354C15.3174 8.16814 15.8515 7.59484 15.7094 7.06074C15.5673 6.52174 14.8176 6.28654 13.9748 6.51194C13.1271 6.73734 12.593 7.31064 12.7351 7.84964C12.8429 8.25144 13.2839 8.48664 13.8523 8.48664V8.47684ZM14.161 7.21754C14.6412 7.09014 14.9597 7.19304 14.9989 7.23224C14.9891 7.31064 14.7637 7.55564 14.2835 7.68304C13.8033 7.81044 13.4848 7.70754 13.4456 7.66834C13.4554 7.58994 13.6808 7.34494 14.161 7.21754Z" fill="black"/>
    <path d="M19.061 9.42717C19.0904 9.42717 19.1198 9.43207 19.1492 9.43207C19.6637 9.43207 20.1194 8.84897 20.2223 8.02087C20.2664 7.65337 20.237 7.29077 20.1292 7.00167C19.9969 6.63907 19.747 6.40877 19.4481 6.36957C18.8944 6.30097 18.3995 6.90367 18.2868 7.77587C18.2427 8.14337 18.2721 8.50597 18.3799 8.79507C18.5122 9.15767 18.7621 9.38797 19.061 9.42717ZM19.0169 7.86897C19.0806 7.37897 19.2913 7.11927 19.3452 7.09967C19.4138 7.13887 19.5559 7.43777 19.4971 7.93267C19.4383 8.42757 19.2178 8.68237 19.1688 8.70197C19.1002 8.66277 18.9581 8.36387 19.0218 7.86897H19.0169Z" fill="black"/>
    <path d="M24.0982 7.63386C24.4608 7.84456 24.8234 7.95236 25.1419 7.95236C25.4898 7.95236 25.774 7.82496 25.921 7.57506C26.0239 7.40356 26.0435 7.20266 25.9896 6.98706C25.8916 6.61466 25.5584 6.22756 25.0929 5.95316C24.7744 5.76696 24.4265 5.65426 24.1227 5.63466C23.7307 5.61506 23.4269 5.75226 23.2701 6.01196C22.9859 6.49216 23.3436 7.18796 24.1031 7.63386H24.0982ZM24.0345 6.36476C24.1815 6.36476 24.4265 6.41376 24.7156 6.58526C25.1419 6.83516 25.2938 7.13406 25.2938 7.19286C25.2301 7.24186 24.8969 7.25166 24.4706 7.00176C24.0443 6.75186 23.8924 6.45296 23.8924 6.39416C23.912 6.37946 23.961 6.36476 24.0345 6.36476Z" fill="black"/>
    <path d="M29.4637 9.49616C29.6597 9.63826 29.8655 9.70686 30.0566 9.70686C30.1693 9.70686 30.282 9.68236 30.3849 9.62846C30.6544 9.49126 30.8063 9.18746 30.8063 8.80036C30.8063 8.49166 30.7132 8.14376 30.5417 7.81546C30.3702 7.48716 30.1399 7.20786 29.89 7.03146C29.5715 6.80606 29.2383 6.76196 28.9688 6.89916C28.4739 7.15396 28.4053 7.93306 28.812 8.71216C28.9835 9.04046 29.2138 9.31976 29.4637 9.49616ZM29.2971 7.55086C29.2971 7.55086 29.2971 7.55086 29.302 7.55086C29.3853 7.55086 29.6695 7.72236 29.89 8.14866C30.1154 8.58966 30.086 8.92286 30.0566 8.96696C29.9586 8.96696 29.6891 8.81016 29.4637 8.36916C29.2383 7.92816 29.2677 7.59496 29.2971 7.55086Z" fill="black"/>
</svg>
