<svg width="45" height="40" viewBox="0 0 45 40" fill="none" xmlns="http://www.w3.org/2000/svg">
    <path d="M44.4184 15.633C44.4184 15.4455 44.3179 15.2669 44.1436 15.1449L39.7334 12.0588V6.79039C39.7334 5.77741 38.7237 4.95336 37.4825 4.95336H29.6321C29.6246 4.94771 29.6194 4.94111 29.6113 4.93593L22.7193 0.152773C22.4237 -0.0517074 21.9901 -0.050765 21.6957 0.154658L14.8394 4.95336H6.71192C5.47068 4.95336 4.46095 5.77741 4.46095 6.79039V12.2157L0.274804 15.1454C0.100454 15.2674 0 15.446 0 15.6335C0 15.6405 0.00230934 15.6476 0.00288666 15.6547V38.1853C0.00288666 39.1106 0.925443 39.8635 2.05872 39.8635H42.3649C43.4987 39.8635 44.4207 39.1106 44.4207 38.1853V15.633H44.4184ZM16.1078 27.2003L1.57839 37.3678V17.0333L16.1078 27.2003ZM17.3179 28.0474L21.6962 31.1114C21.8435 31.2145 22.0265 31.2664 22.2089 31.2664C22.3913 31.2664 22.5743 31.2145 22.7216 31.1114L27.1 28.0474L42.1466 38.5768H2.27118L17.3179 28.0474ZM28.3106 27.2008L42.8458 17.0295V37.372L28.3106 27.2008ZM42.4203 15.633L39.7329 17.5134V13.7526L42.4203 15.633ZM22.2112 1.48849L27.2039 4.95336H17.2601L22.2112 1.48849ZM6.71192 6.23914H37.4825C37.8548 6.23914 38.1579 6.4865 38.1579 6.79039V12.2299C38.1412 12.3048 38.1418 12.3806 38.1579 12.4555V18.6164L22.2089 29.7761L6.03645 18.459V6.79039C6.03703 6.48602 6.33955 6.23914 6.71192 6.23914ZM4.46153 13.9095V17.357L1.9981 15.6335L4.46153 13.9095ZM22.0975 23.2106C23.7134 23.2106 25.3045 22.8666 26.6993 22.216C27.0769 22.0398 27.2079 21.6468 26.992 21.3387C26.7755 21.0305 26.2946 20.9231 25.917 21.0998C24.7601 21.6397 23.4392 21.9253 22.0975 21.9253C17.8461 21.9253 14.388 19.1026 14.388 15.6335C14.388 12.1644 17.8467 9.34169 22.0975 9.34169C26.3483 9.34169 29.8064 12.1644 29.8064 15.6335C29.8064 17.8276 28.5883 18.6597 27.7696 18.6837C27.1473 18.7063 26.6877 18.2979 26.6219 17.6514V15.7433C26.6231 15.7065 26.6289 15.6707 26.6289 15.6335C26.6289 15.5963 26.6231 15.5604 26.6219 15.5237V12.5856C26.6219 12.2303 26.2692 11.9425 25.8339 11.9425C25.3986 11.9425 25.0459 12.2303 25.0459 12.5856V12.8315C24.2526 12.2746 23.2233 11.9354 22.0969 11.9354C19.5983 11.9354 17.5655 13.5943 17.5655 15.6335C17.5655 17.6726 19.5983 19.3316 22.0969 19.3316C23.2908 19.3316 24.375 18.9499 25.185 18.3322C25.5516 19.3429 26.5775 20.0058 27.8256 19.969C29.5386 19.9186 31.3814 18.541 31.3814 15.6339C31.3814 11.4558 27.2166 8.05638 22.0963 8.05638C16.9761 8.05638 12.8119 11.4548 12.8119 15.633C12.8119 19.8112 16.9772 23.2106 22.0975 23.2106ZM22.0975 18.0453C20.4671 18.0453 19.1416 16.9631 19.1416 15.633C19.1416 14.3029 20.4677 13.2207 22.0975 13.2207C23.6816 13.2207 24.9754 14.244 25.0464 15.5232V15.7428C24.9754 17.022 23.6822 18.0453 22.0975 18.0453Z" fill="black"/>
</svg>
