<svg width="25" height="39" viewBox="0 0 25 39" fill="none" xmlns="http://www.w3.org/2000/svg">
<path d="M24.9774 12.6057C25.118 9.18095 23.9514 6.1219 21.5992 3.76381C19.1748 1.33714 15.9448 0 12.4944 0C9.04396 0 5.81396 1.33714 3.38956 3.76381C1.03736 6.1219 -0.129239 9.17714 0.011361 12.6057C0.136761 15.6724 1.28056 18.899 3.31736 21.9314L8.23076 29.2419C4.25596 29.7524 0.041761 31.1238 0.041761 33.539C0.041761 36.4991 6.45616 38.0952 12.4944 38.0952C18.5326 38.0952 24.947 36.4991 24.947 33.539C24.947 31.1238 20.7366 29.7524 16.758 29.2419L21.6714 21.9314C23.7082 18.8952 24.852 15.6724 24.9774 12.6057ZM23.7576 33.539C23.7576 34.2857 22.5834 35.1429 20.691 35.7752C18.5098 36.5029 15.599 36.9067 12.4944 36.9067C9.38976 36.9067 6.47896 36.5067 4.29776 35.7752C2.40536 35.1429 1.23116 34.2857 1.23116 33.539C1.23116 32.3581 4.12296 30.8648 8.97936 30.3543L12.0004 34.8495C12.1106 35.0133 12.2968 35.1124 12.4944 35.1124C12.692 35.1124 12.8782 35.0133 12.9884 34.8495L16.0094 30.3543C20.8658 30.8648 23.7576 32.3581 23.7576 33.539ZM15.2228 29.3905L15.219 29.3943L12.4944 33.4514L4.30536 21.2648C1.05636 16.4305 -0.668839 9.52 4.23316 4.60952C6.42956 2.40381 9.36316 1.19238 12.4944 1.19238C15.6256 1.19238 18.5592 2.40381 20.7594 4.60952C25.6576 9.52 23.9324 16.4343 20.6872 21.2648L15.2228 29.3905ZM12.4944 5.63429C10.7578 5.63429 9.13136 6.30857 7.91536 7.53143C5.39216 10.0648 5.39216 14.1829 7.91536 16.7124C9.13516 17.9352 10.7616 18.6095 12.4944 18.6095C14.231 18.6095 15.8574 17.9352 17.0734 16.7124C18.2932 15.4895 18.9658 13.859 18.9658 12.1219C18.9658 10.381 18.2932 8.75048 17.0734 7.53143C15.8536 6.30857 14.2272 5.63429 12.4944 5.63429ZM16.2336 15.8705C15.238 16.8686 13.9118 17.4171 12.4944 17.4171C11.077 17.4171 9.75076 16.8686 8.75516 15.8705C6.69176 13.8019 6.69176 10.4419 8.75516 8.37333C9.75076 7.37524 11.077 6.82667 12.4944 6.82667C13.9118 6.82667 15.238 7.37524 16.2336 8.37333C17.2292 9.37143 17.7764 10.701 17.7764 12.1219C17.7764 13.5429 17.2292 14.8724 16.2336 15.8705Z" fill="black"/>
</svg>
